<svg version="1.1" id="Layer_1" xmlns="http://www.w3.org/2000/svg" x="0" y="0" viewBox="0 0 309.6 249.8" style="enable-background:new 0 0 309.6 249.8" xml:space="preserve"><style>.st11{fill:#bfbdba}.st21{fill:#bcc0c1}.st24{fill:#533b2b}.st34{fill:#b9b5b0}.st41{fill:#62483e}.st42{fill:#4f372c}.st45{fill:#b4aca3}.st51{fill:#876b58}.st52{fill:#967259}.st60{fill:#805c42}.st64{fill:#986d4f}.st68{fill:#855d40}.st73{fill:#a1775c}.st111{fill:#986a46}.st125{fill:#f3c1b7}.st127{fill:#f6c8bc}.st132{fill:#f4c7b8}.st133{fill:#f0b5a5}.st142{fill:#936443}.st151{fill:#8b4984}.st152{fill:#622365}.st154{fill:#702771}.st156{fill:#5d1f5b}.st161{fill:#581e5a}.st162{fill:#612161}.st163{fill:#662467}.st167{fill:#632263}.st170{fill:#692468}.st172{fill:#551d54}.st176{fill:#5a1f5a}.st177{fill:#4f1f4e}.st188{fill:#966848}.st190{fill:#ac7854}.st191{fill:#814a2e}.st192{fill:#c19675}.st202{fill:#a06b45}.st208{fill:#a9724d}.st210{fill:#bc7859}.st213{fill:#fad8d0}.st226{fill:#f9d1c6}.st250{fill:#ecafa5}</style><path d="M77.7 249.8H0L110.9 0h43.8c.2 3.4-2.8 4.2-4.8 5.7-10.4 8.5-19.1 18.3-24.4 30.9-6.2 14.6-12.2 29.4-18.5 44-2.9 6.8-1.7 14.1-3.1 21.1.8-.1-2.1 2.1.6.9 1.8-.8 4.6-.2 2.8 2.1-3.4 4.5-2.9 9.6-3.9 14.5-2 2.8-2.4 6.1-2.8 9.4-2.1 4-3.5 8.2-3.4 12.9 0 .8 0 1.7-.3 2.5-4.4 9.9-3.3 19.9-1.9 30.3 1.6 11.7-1.2 23.1-4.7 34.3-3.2 10.3-7.1 20.4-8.5 31.2-.4 3.5-1.6 7.1-4.1 10z" style="fill:#d4e1e9"/><path d="M231.6 0h77.9v170.9c-.5.2-1.1.4-1.4.1-5.4-4.8-12.3-8-15.9-14.8-1.7-3.1-3.8-5.9-6.3-8.3-4.3-4.2-6.4-9.3-6.7-15.2-.4-8.1-2.6-15.5-6.8-22.6-5.2-8.9-8-19-11.3-28.7-5.3-15.4-8-31.6-13.4-47-3.4-9.7-7.5-19.2-14.1-27.4-1.5-1.9-4-3.9-2-7z" style="fill:#dfeaef"/><path d="M309.6 188.9c-4.5-3.5-7.2-9-13-11-.7.6-1.4.6-2 0-.4-.3-.7-.7-1.1-1-1.5-3.7-2.1-7.8-4.6-11.1-1.8-.9-3.6-1.9-5.3-2.8-3.8-2.2-7.3-4.8-9.3-8.9.5-1.2 2.5-1.8 1.4-3.6-.4-.8-.9-1.5-1.4-2.2-.6-1-1.4-1.9-2-2.9-2.1-8.5-5.1-16.9-3.1-25.9-.1-6.9-4-11.3-9.6-14.6-.3-.4-.6-.8-.8-1.2-.9-3.8-1.6-7.7-4.3-10.8-1.6-1.8-1-4.4-1.7-6.6-.3-.6-.8-1.1-1.2-1.6-1-1.2-1.5-2.8-2.2-4.2-.4-.8-.7-1.7-.8-2.6-.2-2.2.7-4.5-.1-6.7-.1-.4-.2-.9-.2-1.4.1-2.1-.8-4-1.6-5.9-3.6-9.5-6.6-19.3-8.3-29.4-.5-3-1.6-5.7-4.3-7.5-1.8-1.8-2.6-4.3-4.2-6.3-.7-1.1-1.4-2.3-2.2-3.4-1.1-1.7-2.3-3.3-3.2-5.2-1.2-2.8-3-5-5.4-6.9-1.7-1.3-4.1-2.5-3.5-5.4h16c-.4 3.3 2.4 5 3.9 7.2 6.8 9.7 11.7 20.4 15 31.7 4.8 16.2 8 32.8 14.2 48.5 3.8 9.6 6.5 19.7 12.5 28.5 2.8 4 3.2 9.7 3.3 14.9.1 6.4 1.9 12 6.8 16.5 2.9 2.7 5.4 5.8 6.8 9.7.4 1.1 1 2.3 1.9 2.8 5.2 2.9 8.9 7.5 13.4 11.1.2 6.2.2 12.2.2 18.2z" style="fill:#cad7de"/><path d="M77.7 249.8c2.9-10.1 4.4-20.6 7.6-30.7 5.7-17.5 11.8-35.2 6.7-54.2-1.1-3.9-.9-8.2.6-12.3 1.8-5 3.4-10 3.2-15.5-.1-3.5 1.9-6.6 4-9.5 1.1-.2 1.8.4 2.4 1.2.2.4.3.8.4 1.3-.3 2.1.8 3.7 1.4 5.5-.2 2.2-.5 4.4-.6 6.6-.9 3.4-3.8 5.3-6.4 7.9 6.2-1.6 3.7 3.2 4.7 5.4 0 .5 0 .9-.1 1.4-.1.6-.2 1.4-.7 1.7-1.9 1.5-.3 1.6.7 1.9 1.3 1.2 1.3 2.7 1.4 4.3 0 1.7-.3 3.3-.9 4.8-.5 1.4-.7 2.4.9 3.5 1.8 1.4 1.6 3.7 1.2 5.9-.4 2.1-.1 4.2-.2 6.4 0 .8-.1 1.6-.3 2.4-1.7 7.4-3.9 14.7-5.8 22.1-3.8 11.7-7.9 23.2-10.4 35.3-.4 1.8-1 3.5-2.9 4.4-2.2.2-4.5.2-6.9.2z" style="fill:#c4d1d9"/><path d="M102.7 101.9c-.6-15.2 4.8-28.8 11.7-42 1.7-3.3 3.1-6.6 4.2-10.1 3.9-12.2 9.5-23.4 17.9-33.3 5.4-6.4 12.1-11.2 18.3-16.6h10c.2 2.6-2.1 3.2-3.6 4.3-.9.4-1.8.3-2.7.4-5.6 1.1-8 5.7-10.9 9.8-2.8 3.7-5.5 7.4-8.3 11.1-3.5 3.1-4.1 7.7-5.9 11.6-1.8 2.3-2.8 4.7-2.7 7.7.1 3.1-1.1 6.1-2.5 8.9-3.6 2.7-4.4 7.1-6.5 10.8-3.1 3.7-5.4 7.5-6.4 12.5-.8 3.8-4.4 6.9-4.6 11.2-.9 2.5-1.1 5.1-1.8 7.6-1.1 3.2-2.2 6.2-6.2 6.1z" style="fill:#c6d1d7"/><path d="M160.4 3.7c1.4-1.2 2.8-2.5 4.3-3.7h13c2 3 4 .5 6 0h16c2.3 2 5.3 3.1 7.8 4.9 1.7 1.2 3.4 2.6 3.7 4.9-.1.7-.2 1.4-.8 1.8-1.7 1.3-1.7 1.3-.2 3 3.3 3.7 6.4 7.5 8.1 12.3.7 1.5 1.6 3 2.4 4.4.8 1.9 1.6 3.9-.6 5.3-2 1.3-4.1.6-5.9-.8-2.4-1.8-4.5-3.8-4.5-7.2-.2-2.4.4-5.1-2.2-6.8-1.5-2.3-6.1-2.6-4.3-7.1.2-.4-3-1.5-4.9-1.4-1.5.1-2.9.6-4.4.6-2.6-.1-3.6-1.3-2.8-3.9.6-1.1 1.7-1.8 2.5-2.8-3.4 2.7-8.1 2.2-11.3 3.7-5.3 2.4-10.6 1.7-15.7 2.7-6.5 1.3-9.7-1.7-8.8-7.3.5-1.3 1.6-1.9 2.6-2.6z" style="fill:#453129"/><path d="M215.6 0c1.6 3.2 5.1 4.3 7.2 7 1.2 1.5 2.8 2.8 2.8 5-3.1 1-4.3-1.5-5.9-3.3 2.8 3.6 6.5 6.7 7.2 11.6.1 1.2.1 2.4 0 3.7-.1.7-.4 1.4-.9 2-3.1.5-2.8-2.5-4-4-1.2-1.5-2.2-3.2-2.9-5-.3-1.2-.3-2.5-1.2-3.5l-2.4-3c-2.1-2.9-3.8-6-6.9-8-.8-.5-1.4-1.4-.9-2.5h7.9z" style="fill:#6e564c"/><path d="M207.6 0c3.5 2.9 6.9 5.8 8.9 10.1.2 2.5 1.5 5.3-1.4 7.2-3.6-1.2-4.6-3.9-4.4-7.3-1.7-2.5-3.9-4.3-6.8-5.6-1.8-.8-4.2-1.6-4.3-4.4h8z" style="fill:#2f221c"/><path d="M183.7 0c-.9 2.2-3.2 2.2-4.9 2.7-1.1.4-2.9 1-3.4-.7-.4-1.3 1.9-1 2.3-2.1 2 .1 4 .1 6 .1z" style="fill:#69524b"/><path d="M102.7 101.9c3.1-2 5.1-4.6 5-8.5 0-2 .5-3.9 1.9-5.5.9-1.5.7-3.4 2-4.8 1.5-1.5 2.9-2.8 4.7-.5.8 1.8 0 3.5-.3 5.2-.2 1.5-.8 2.8-1.3 4.3-.4 1.2-2.1 2 .6 3.4 2.8 1.5 1.5 5.4 1.5 8.3-.1.7-.3 1.4-.7 2-2 2.6-6 2-7.7 4.7.5-.4 1.1-1.2 2.1-1.4 3.9.7 2.2 2.9 1 4.6-1.7 2.6-4.8 3.4-7.3 4.9-.6.3-1.2.7-1.8 0 .3-5.4-1.1-11.2 5.4-15.2-4.4-.8-4.7 2.4-6.4 4.3-1.3-2.5.8-4 1.3-5.8z" style="fill:#bcbebf"/><path d="M102.6 118.7c.4-.2.8-.5 1.1-.7 1-.9 1.8-.6 2.3.6-1.3 3.1-3.1 6.1-2.9 9.6 0 .7-.7 1-1.5.9-.6-.5-1.2-.9-1.8-1.4-.4-3.4.3-6.5 2.8-9z" style="fill:#8d817a"/><path class="st11" d="M260.5 104c6.2 3.1 10 7.7 10 14.9-.4 2.9-.3 5.9-2.5 8.2-2-.5-2.1-2.6-3.1-3.8-2.6-5.5-7.5-9.1-11.1-13.7-.7-5.7-.5-6 4.9-5.1.7.1 1.3-.1 1.8-.5z"/><path d="M225.6 23.9c0-1.3.1-2.6.1-4 1.1-.9 1.4-2.5 3-3 .6 1 1.3 2.1 1.9 3.1.9 4.2 2.3 8.1 5.7 10.9.8 1.5 1.2 3.1 1.3 4.7.2 4.3 1.2 8.4 3.4 12.2.1.5 0 .9-.1 1.4-1.6 1.9-1 4-.6 6.1.3 1.3 1.4 3.1-.6 3.9-1.5.6-2.3-.9-3.1-1.9-.4-.5-.7-1.1-1-1.7-1.1-2.6-1.5-5.3-1.4-8.1-.6-4.4-3-8.1-4.6-12.1-1.3-3.8-3.1-7.5-4-11.5z" style="fill:#604639"/><path d="M240.7 48.9c.1-.3 0-.6-.1-.9-3-3.5-2.4-8.1-3.9-12.1-.4-1.6-.8-3.3-1.2-4.9-.7-1.6-2.8-2.9-1-5 4.1 1.6 4.9 5.5 5.5 9.1 1.4 9.1 3.8 17.9 7.3 26.4.3.7.2 1.6.3 2.4-1 2.5 1.2 4.1 2 6v1c-.9 1.2-1.9 2.2-3.5 2.5-.5 0-1-.1-1.5-.3-2.2-4.5-5-8.8-3.4-14.4.9-3-1.2-6.4-.5-9.8z" style="fill:#bac0c2"/><path d="M267.7 126.9c2.2-2.2 1.1-5.6 2.9-8 .2 1 1 2.2.6 2.9-3.9 8.5 2.2 16 2.5 24-3.8.4-10-3.9-10.6-7.5-.2-1.4.2-2.7 1.5-3.5 1.7-1 2.8.2 3.8 1.3-2.1-2.9-3.4-5.9-.7-9.2z" style="fill:#c1c3c5"/><path d="M267.7 126.9c-.5 3.3.2 6.5.9 9.8-1.6.4-2.5-3-4.1-.5-1.3 2 .3 2.5 1.5 3.8 2.2 2.5 3.9 5.4 7.7 5.8.9.5 1.7 1 2 2.1-1.8 1.8-4 1.8-5.8.4-3.9-3.1-7.9-6.2-11-10.2-.5-1.2-.6-2.5-.3-3.8.1-.5.3-.9.6-1.3 3.5-1.1 5.4-3.3 5.2-7.1 0-1.1.2-2.3 1.3-3 1.7.8 2 2.3 2 4z" style="fill:#baa896"/><path d="m249.7 77.9.9 2.1c-.6 1.7.4 3 1 4.4.1.4.2.8.5 1.1 0-.5.1-.9.4-1.3.4.3.8.5 1.2.8.9 3.4.2 6.7-.1 10-1 1.8-2 1.4-2.7-.1-.6-1.1-1-2.1-2.5-1.5-.5 0-.9-.1-1.4-.4-1.7-1.4-2.4-3.3-2.3-5.4.7-2.6.6-5.2.5-7.8.2-1.8-.2-3.8.9-5.5 3.7-1.5 1.8 3 3.6 3.6z" style="fill:#b59780"/><path class="st11" d="M252.6 96c.4-3.7.7-7.3 1.1-11 .2 6.9 7.2 11.5 6.1 18.8-3.4 1-4.9-1.8-7-3.5-1-1.4-1.5-2.9-.2-4.3z"/><path d="M259.6 138c2.3 2.9 6.6 3.2 8.4 7.3 1.1 2.6 4.6 3.3 7.7 2.6.3.6.7 1.2 1 1.8-.3 1.1-1.2 1.5-2.1 1.8-1.8.1-3.4-.1-4.7-1.4-2.7-1.7-5.5-3.4-8.2-5.1-2-1.4-3.8-2.8-3.5-5.6.2-.8.7-1.3 1.4-1.4z" style="fill:#b39679"/><path d="M228.7 16.9c-.2 1.8-1 3-3 3-1.7-5.1-5.4-8.8-9.7-13.6 4.6 1.1 6.3 4.9 9.6 5.7 1 1.6 2 3.2 3.1 4.9z" style="fill:#463129"/><path d="M253.6 100c2 1.3 4.1 2.5 6.1 3.8.3.1.5.2.8.2-1.2 4.1-3.7.6-5.8.8v5c-.3.1-.5.2-.8.4-3.1-.7-3.7-3-3.7-5.6.1-2.3.4-4.4 3.4-4.6z" style="fill:#b09e8e"/><path d="M234.6 26c.3 1.7.7 3.3 1 5-4.6-2.3-6.1-6.1-4.9-11 2.1 1.4 2.5 4 3.9 6z" style="fill:#86766a"/><path class="st21" d="M249.7 77.9c-2.2-.4-1.6-2.9-3-4-.6-.3-.6-.7-.1-1.1.2-1.9 1.6-1.8 3-1.8 1.9 2.2-.2 4.6.1 6.9z"/><path d="m274.3 150.8 2.4-1.2c2.4 2.9 2.2 4.5-2 4.4-.8-.2-1.7-.3-2.2-1.2-.4-1.5 1.1-1.4 1.8-2z" style="fill:#534335"/><path class="st21" d="M249.6 70c-1.2-1.8-6.5-2.3-2-6 1.9 1.6 2.1 3.7 2 6z"/><path d="M252.5 84.2v2.4c-.6-2.2-4.2-3.7-1.9-6.6 1.5 1 .6 3 1.9 4.2z" style="fill:#846855"/><path class="st24" d="M102.7 187.8c0-.7 0-1.3.1-2 1-1.7.4-3.5.5-5.3.1-1.8 1-2.2 2.6-1.9.8.2 1.6.3 2.4.1 6.3-1.5 7.5-.7 8 5.7-.8 2.1-2 3.9-3.7 5.4-2.6 1.8-4.2 3.9-4.1 7.4.1 2-1 3.5-3.5 2.8-2.7-3.7-2.1-8-2.3-12.2z"/><path d="M102.9 141.8c-.8-2.2-.7-4.3.8-6.3.3.2.6.4.9.7.4.6.7 1.2 1.3 1.7 1.8-.1.4-1.2.6-1.8-.1-1.7.8-3.3.7-5 1-2.6 3-3.3 5.5-3.4.6.4.8 1 .9 1.7-.3 2 .4 3.7 1.8 5.2.5 1.3.5 2.6.5 3.9 0 1.2 0 2.5-1.1 3.1-1.5.8-1.9-.7-2.6-1.5-1.4-1.7-1.3.3-1.8.8-2.4 2.1-3.2 4.9-3.1 7.9-.8 3.7-1.1 7.5-2.1 11.2-.2 1.2-.6 2.3-1.1 3.3-.5.9-.9 1.7-2.2 1.5-.5-1.3.3-2.9-1.1-3.9-1.1-1.4.8-2.7.1-4 0-.3 0-.7-.1-1 .8-4.7 2.1-9.3 2.1-14.1z" style="fill:#948378"/><path d="M101.8 164.9c.9-.3 1-1.1 1.2-1.9.4-.7 1.1-.8 1.8-.5 2 2.4 2.6-.6 3.8-1 .5-.1.9-.1 1.3.1 1 .9 1.1 2.3 1.6 3.5 1.1 3.1.8 5.5-3.2 5.8-.9.1-.9.3.3 1.9.3.3.5.7.7 1.1.5 2.3-1.6 3.4-2.5 5-.3.3-.6.6-1 .8-1.5-.7-1.9 0-2 1.5 0 1.5.4 3.3-1 4.5.1-2.8.3-5.5.4-8.3 0-1.1.2-2.9-.4-3.2-4.4-2.7-1.3-6.1-1-9.3z" style="fill:#675240"/><path d="M101.7 129.1c.4-3.7-.3-7.9 3.9-10.2 1.5-1.8 3.1-4 5.7-2.3 2.7 1.8 1.1 4.3.4 6.7-1.2 3.9-5.5 4.4-7.8 7.1-.8.2-1.5.1-2.1-.5-.1-.3-.1-.5-.1-.8z" style="fill:#b9bfbe"/><path d="M102.9 141.8c2.9 5.3.2 9.7-2.1 14.2-.4-1.7-1.1-3.3-.3-5.1-1.2-.4-1.6.5-2.2 1-.9.7-2 1.5-3 .4s-.2-2.2.7-3c2.5-2.3 5.3-4.4 6.9-7.5z" style="fill:#b1b8bb"/><path d="M101.7 129.9c.6 0 1.2.1 1.9.1 1.5.5 2.5 1.5 2.8 3.1-.3 1.5-.5 3-2.6 2.9.1-.2.1-.4-.1-.5-3.1-1.1-2.9-3.2-2-5.6z" style="fill:#c2ced4"/><path d="M100.8 157c1.7 1.4.5 2.7-.1 4-1.2.5-2.3 1.1-3.8 1.8.1-2.9 3.1-3.7 3.9-5.8z" style="fill:#706055"/><path d="M138.6 24.9c2.2-4 5-7.6 8.1-10.9.5-.5 1.1-.6 1.8-.4 1.3 1.2.4 2.8.9 4.1.3 1.1 2 .9 2.2 2.1 1 3.4.5 6.5-1.9 9.2-1.3 1.1-2.7 2-4.3 2.8-2 1.3-2.8-.6-4.1-1.4-1.3.7-2.1 2.5-4 1.4-.6-2.4-.9-4.9 1.3-6.9z" style="fill:#a98972"/><path d="M115.8 83.1c-4.7-1.8-4 3.4-6.1 4.8.1-3.4 1-6.4 3.4-9 2.4-2.5.2-6.6 3.1-9.3 1.8-1.6 2.3-4.4 4.5-5.7 1.6 1.3 1.5 3.5 2.6 5.1.3 1.3-.1 2.5-.8 3.6-1.3 1.4-1.2 3.3-1.6 5-.5 2.9-1.5 5.4-5.1 5.5z" style="fill:#bfc1c1"/><path d="M148.4 17.9c-1.4-1.4-.1-2.8.2-4.1 1.6-5.4 6.6-7.6 10.6-10.6l1.2.6c0 1.2-.9 1.8-1.7 2.4-.6 1.7-1.8 2.8-.1 5.1 2.3 3.1-.8 3.7-3.3 3.8-3-.9-4.1 3-6.9 2.8z" style="fill:#937a68"/><path class="st34" d="M122.9 69c-3.3-.5-1.9-3.2-2.2-5 .5-3.2 3.3-5.5 3.5-8.9.1-1.7 2.2-.8 3.3-1.3.2.2.4.4.6.5-.7 5.3-2.1 10.3-5.2 14.7z"/><path d="m159.2 3.2-10.6 10.6c-.6.1-1.3.1-1.9.2 2.7-5.3 6.1-9.8 12.5-10.8z" style="fill:#c7c8c7"/><path d="M138.6 24.9c-.3 2.4-.6 4.7-.9 7.1.7 1.7-.6 2.6-1.5 3.7-.9.8-1.8 1.6-3.1 1.6-.2-.1-.4-.3-.6-.4 1.2-4.5 1.6-9.2 6.1-12z" style="fill:#c0b5a9"/><path class="st34" d="M127.5 53.8c.4-4.2 2.4-8.2 2.1-12.5-.1-1.9 1.4-3.3 2.9-4.4l.4.2c1.4 3.8-1.2 7.1-1.2 10.8-1.2 2.1 0 5.8-3.9 6.2 0-.1-.2-.2-.3-.3z"/><path d="M230.6 34.9c2.3 3.8 4 7.9 5 12.2-1.2 1.3-.4 2.9-.5 4.3-.1 1.4-.5 2.2-2.1 2-3-3.2.1-6.8-.9-10.3.3 3.4-.6 6.5-.4 9.7.1 3.3-1.4 4.1-4.3 3.1-.5-.2-.8-.5-1.2-.8-.5-.8-.6-1.7-.4-3.8-.3 2.3-.1 3.4-.2 4.5-.9 3.3-1.2 6.8-2.2 10.1-1.1 1.3-1.7 3.8-3.9 3.1-2.5-.9-1.8-3.4-1.1-5.2.6-1.6-.6-1.4-1.2-1.9-1.1-1.6-.9-3.5-1.3-5.2-1.6-7.3-1.6-7.3 5.3-6 .9-6.7-1.4-11.4-8.3-13.2-1.4-1.5-3.4-1.9-4.8-3.3-1.3-1.2-1.7-2.8-1.1-4.4.7-1.6 1.8-2.8 3.8-1.7 1.1 2.1 1.1 4.7 3.4 6.3 1.7 1.2 3.4 2.3 5.3 1.5 2.6-1.2-.1-3.1.3-4.7.3-.7 1-1.1 1.5-1.6.7-1.5-1-3.2.4-4.6 2.5-1.5 2.7 2.7 4.9 2 1.7 2.2 1.5 5.7 4 7.9z" style="fill:#735543"/><path d="M154.4 13.8c1.3 0 3 1 3.9-.7.7-1.4-1.1-1.6-1.6-2.4-1.5-2.3 1.2-3 2-4.5-.3 4.9 2.8 7.6 7.7 6.3 3.6-1 7.2-1.5 10.9-.7.6.1 1.8-.2 1.8-.3-.3-5.9 4-2.2 5.6-2.2 2.4.1 4.1-.6 5.9-1.8 1.5-.9 3.2-3.9 4.7-1.1 1.1 2-1.8 2.9-3.6 3.6-.8.8-.9 2.1-1.8 2.8-2.8 5-8 5.3-12.7 6.3-1.5.2-2.9.3-4.1-.8-.5-.8.9-2.9-1.8-2.1-3.6 1.1-6.9-2.2-10.2-1.1 3.8.6 8 .9 11.8 3-.7 2.6-2.9 2.2-4.7 2.1-3.1-.1-5.7.7-7.8 3.1-2.2 2.4-3.9 5.6-8 5-1.6-.3-1.9 2.6-3.8 1.6-.3-.4-.3-.8 0-1.2 2.2-3 2.5-6.3 2.1-9.9-.2-2.6 1.4-4.1 3.7-5z" style="fill:#624437"/><path d="M210.7 27.9c-1.8.2-3 1.1-3 3.1 0 1.7 1 2.6 2.5 3.1s3.2.9 3.4 2.9c-1.5 1.8.7 2.5 1.1 3.8.7 2.1.8 3.9-1.8 4.7-2-.2-4 .7-6-.4-1.1-.5-2.1-1-2.8-2.1-.1-2.3 0-4.6-1.9-6.4-.8-.8-1.5-2.1-1.2-3.2.9-3-.9-4-2.9-5.5-2.3-1.7-3.5-4-1.8-6.9 3.7.8 6.6 3.9 10.7 3.4 2-.4-.2-2.8 1.5-3.3 3 1.5 2.7 4.1 2.2 6.8z" style="fill:#634033"/><path d="M208.6 21c.2 1.1.5 2.1.6 3.2.3 1.9-.9 1-1.6.8-2.3.1-3.2-2-4.7-3-2-1.4-4.1-4.4-6.9-1.2-.3.4-.6.7-1.1.8-7.7-1.9-8.1-2.6-5.3-9.4.3-1.1 1-1.8 2-2.2 0 1.9.3 3.4 2.8 2.6 1.7-.5 3.5-.8 5.3-1.2 2-.4 4.1 1.2 3.9 2.2-.7 4.4 3.2 5.1 5 7.4z" style="fill:#765445"/><path class="st41" d="M210.7 9.9c1.3 2.3 2.7 4.6 4 7 3.1 2.5 3.9 5.8 3.5 9.5-.2.2-.3.4-.5.6-3.1-2.6-3.6-6.9-6.8-9.7-2.4-2-4.3-4.9-7.1-7.9 2.7 0 4.7 4.2 6.9.5z"/><path class="st41" d="M221.8 29.8c-.4.9-1.2 1.2-2.1 1.2-1.8-.8-2.1-2.3-2-4 .7-.7 1.3-1.4 2.4-1.3 1.3 1 2.3 2.2 1.7 4.1z"/><path class="st42" d="M225.7 26.9c-2.2 1.2-2-2.6-4-2-2.7.2-2.8-2-3.4-3.7.5-1.7-2.2-4.3 1.3-5.3 2.1 3.3 4.5 6.4 5.8 10.1.3.1.4.3.4.6 0 .2-.1.3-.1.3z"/><path class="st42" d="M219.7 25.8c-.4.9-1.2 1.1-2.1 1.2-.2-3.6-1.9-6.8-3-10.1 1.9-1.9.3-4.8 1.9-6.8 1.2.6 1.5 1.9 2.1 2.9-.9 3-.5 6 .4 8.9.2 1.3 1.1 2.5.7 3.9z"/><path d="M225.7 26.9c0-.3-.1-.6-.2-.9 0-.7.1-1.4.1-2.2 2.7 3.2 4.1 6.9 5 11-3.9-1.2-3.2-5.3-4.9-7.9z" style="fill:#b2917d"/><path class="st41" d="M218.4 22c-.9-3-3.4-6.1.2-9 1.5.6 1.8 1.6 1 3-1.8 1.7.7 3.4-.1 5.1-.3.3-.4 1-1.1.9z"/><path d="M115.8 83.1c2.6-1.6 4.1-3.8 3.9-7-.1-1.8.2-3.3 2-4.2 1.7 1.5 1.8 3.8 2.8 5.6.4 1.1.1 2.6.9 3.3 4.5 3.6 2.7 7.4.5 11.3-1 1.8-1.5 3.6-.6 5.6.2.7.1 1.4-.3 2-2 1.4-3.5.8-4.7-1.1-.2-.4-.3-.9-.4-1.4.2-3.3 1.7-6 3.6-8.5.5-.5-.8-.4-.2-.1.1.1 0 .2-.2.4-.6.9-1.3 1.4-2.4 1.4-1.6-1.9-2.7-2.4-6-2.6.3-1.5.7-3.1 1.1-4.7z" style="fill:#b28b6d"/><path class="st45" d="M105.9 133.1c-.7-1.1-2.2-1.6-2.3-3.1 1.4-1.4.3-5.2 4.5-4 1.3.4 4.4-6.7 3.4-7.9-2.3-2.9-3.9.3-5.9.8-.3-.8-1-.9-1.8-.9 1.3-2.5 4.6-1.7 6.1-3.8.9-1.3 3.6-2.2.9-4.3 2.3-2.1 4.5-1.6 5.5 1.3.5 1.5-.1 2.9-.3 4.4-1.7 3.9-2 8.2-3.2 12.2-1.3 1.8-4.2 1.4-5 3.9-.3 1.1-.9 1.5-1.9 1.4z"/><path d="M114.7 87.9c.6-.2 1.3-.3 1.9-.5 1.6-.6 2.2-3.7 4.2-2.4 2 1.3-2 2.5-.8 4.2.2.3.4.5.6.7.5 2.6-1 5.1-.2 7.7.1.1.2.3.3.4.2 1.7.2 3.3-1.3 4.5-1.2.6-2.1 1.9-3.7 1.4 0-1.2-.1-2.3-.1-3.5-.1-1.6.7-3.7-1.1-4.6-1.6-.8-2.2 1.9-4.4 1.7 2.8-2.8 3.7-6.2 4.6-9.6z" style="fill:#a4846b"/><path d="M114.6 115.9c.8-5.6.1-6.6-3.9-5.9-1.4 1.3-2.9 2.7-4.1 3.9.3-3.7 2.3-5.6 8.9-8.1.5 1.8 1.6 2.5 3.5 2.2 1.9 3.8-1.8 5.5-3.1 8.1-.5.1-.9.1-1.3-.2z" style="fill:#9c8b7d"/><path d="M118.6 107.8c-.7.2-.7 1.8-1.7 1.2-1-.7-2-1.7-1.4-3.3l.3-1.8c1-.7 1.4-2.1 3-2 1.6 2.1 1.6 4-.2 5.9z" style="fill:#886c52"/><path d="M258.7 138.9c0 2.5 2.3 3.9 2.9 6.1-.3 0-.7.1-1 .1-1-.4-1.9-.8-2.9-1.2-3.3-.5-5.9-2.5-8.7-4-.4-.3-.8-.6-1.1-1-1.1-2.6.8-2.8 2.4-2.7 2.8.2 5.5.5 8 2.1.1.2.3.4.4.6z" style="fill:#95785d"/><path d="M265.7 122.8c-.1 2 .2 4-.3 5.9-.7 2.8-1.8 5.5-5.7 4.3-.1-.1-.3-.4-.2-.4 5-6.4-.5-9.6-4.3-13.1-2.2-2.1-4.2-4.1-5.2-7.1-.1-.5-.1-.9-.1-1.4.9-3 3-.6 4.5-1l.3-.2c4.5 3.6 9.2 7.1 11 13z" style="fill:#c5a386"/><path class="st51" d="M246.3 79.9c.4 2.7.9 5.5-.8 8-2.5-.3-1.5-1.7-1.2-3.2.2-1-1.2 0-1.8-.7-1.1-1.2-1.3-2.6-1.3-4.1 0-1.5-.2-2.9-1-4.2-2.8-4.8-4.6-9.9-5-15.4-.1-1.4.1-2.7.8-3.9.2-.2.4-.3.6-.5.9.9 1.9 1.7 2.8 2.6 1.3-3.1-5.2-7.1 1.2-9.5 1.6 2 2.3 4.5 1.9 6.9-1.2 6.2 1 11.6 3 17.1.8 2.2-.4 4.7.8 6.9zM236.7 35.9c3 3.5 2.1 8.2 3.9 12.1-4.2-3.1-3.6-7.7-3.9-12.1z"/><path class="st51" d="M233.7 53c2.4-1.4-1.2-4.8 1.9-6 .4 3 .7 5.9 1.1 8.9l-.1.1c-2.2.2-4 0-2.9-3z"/><path class="st52" d="M246.3 79.9c-2.3-2.1-1.4-4.6-.7-7 .3-.1.7-.1 1.1-.2 0 .4 0 .7.1 1.1-.2 2.1-.3 4.1-.5 6.1z"/><path d="M250.7 111.8c1.9 4.9 7.1 7.1 9.9 11.4 3.3 5.1 3.7 4.8-.8 9.7-.2.2-.3.4-.3.6-1.1 1.5-2 .6-2.9-.3-.7-1.7.9-3.1.5-5.1-1.3-1.1-5.3 1.4-4.8-2.9 3.1-3.6.2-4.1-2.4-4.8-2.6-.7-3.8-2.6-3.6-5-.1-2.6 2.7-2.5 4.4-3.6z" style="fill:#8b684e"/><path d="M256.8 133.1c.9.2 1.7.3 2.6.5.1 1.5.2 2.9.2 4.4l-.9.9h-.4c-1.7-1.1-3.2-2.3-2.5-4.7.2-.5.6-.9 1-1.1z" style="fill:#be9474"/><path d="M247.7 92.9c.3.1.6.1.9 0 3.9 2.6 2.1 6.6 2.3 10 .2 1.9-.6 4.2-1.9 6-2.2 1-3.5-.5-4.8-1.9-1.4-3.3-2-6.6-.3-10 1.4-1.2 1-4.1 3.8-4.1z" style="fill:#8d6547"/><path class="st52" d="M247.7 92.9c-1.7.8-.2 4.1-3 4.1-1.5-1.9-3.6-3.3-4.9-5.4.5-3.8.4-7.6.3-11.4 0-1.8-.1-3.7 1.4-5.1 1.8 1.3.8 3.3 1.2 4.9.3 1.2-1.6 3.7 2.2 3.2 1.5-.2-1.7 3.4.7 4.7.7 1.7 1.4 3.3 2.1 5z"/><path d="M248.5 109c2-5.4 1.5-10.7.1-16.1.2-1 .2-2.1 1.5-2.3 1-.1 1.3.8 1.5 1.6.3 1.2-.3 2.7 1 3.7.3 1.3.7 2.7 1 4-3.1 3.9-2.9 6.4.9 10.1-.9 1.8-3.1-1-4 1-1.5.2-2.2-.5-2-2z" style="fill:#ac8465"/><path d="M105.7 179.9v-1c.9-1.7 5-1.5 3.1-5l-.3-.2c-.1-2.6 2.5-3.3 3.6-5 1.1-1.6 2.2-2.9 1.4-4.9-.1-1 0-1.9.4-2.9.9-1.6 2.2-2.8 4.2-2.6.5.1.9.4 1.2.8 2.5 4.1 1.4 8.8 2.3 13.1.3.6.5 1.3.6 2 0 .5-.1.9-.3 1.3-.2.5-.9.5-1.2.9.6-.1 1.2-.3 1.8-.3.5.1.9.3 1.2.6.8 1.1.7 2.4 1.2 3.6 1 2.5.8 4.9-2.4 5.6-1.7.4-1.1 1.7-1.6 2.6-.4 5.2-5 5.5-8.4 7.3l-.1.1c-1.1.4-1.9-.2-2.5-1.1-1-2.7.9-3.9 2.6-5.3 1.2-1.4 3.1-2.4 2.9-4.7-.9-5.2-3.1-7.7-8.3-4.1 0 .2-.8-.5-1.4-.8z" style="fill:#654129"/><path d="M113.7 190c-.8 1.8-3.7 2.2-3 4.9.3 3.1-1.2 6-1 9.1-1 1.9 3.3 4.6-.9 5.9-.3-1.9-1.5-3-3-4v-6c.9-.5 2-1.1 1.7-2.1-1.3-4.4 1.3-6.7 4.3-8.9.4.6 1.5.2 1.9 1.1z" style="fill:#744a33"/><path d="M113.7 190c-.9 0-1.8.1-2.1-1.1 2.2-.4 1.3-4.1 4-4 1.8.3 2.1 1.2.8 2.6-.8.8-1.7 1.6-2.7 2.5z" style="fill:#ba846c"/><path class="st60" d="M109.7 161.9h-.9c-.4-.1-.8-.3-1.2-.5-1.1-.9-2.5-1-3.7-1.6 1.2-3.6.2-7.9 2.8-11.1 0-2.9.7-5.5 2.9-7.6 0-.5 0-1 .1-1.5.3-1.2-.5-3.1 1.4-3.3 1.9-.2 1.5 1.8 1.9 2.9.2.6.5 1.2 1.5 1.7V134l.6-.3c1.3.2 2.6.6 3.3 1.8 1.4 4.4-.7 8.9.5 13.3-.2.4-.5.8-.8 1.1-1.4.7-2.5 2.2-4.4 1.2-.2-.1-.2-.5-.5-.5.8 2 .2 4.2.6 6.2 0 2.1.4 4.3-1.9 5.6-.7.3-1.5.1-2.2-.5z"/><path d="M114.6 115.9c.3.1.7.1 1 .1 1.7 1.3 1.7 3.2 1.6 5-.1 2.2.9 3 2.9 3 2.4.6 2.5 2.5 2.5 4.4.5 2.7 3.3 4.5 2.9 7.5-.1.5-.3.9-.6 1.2-2.1 1.4-3.7-1.2-5.7-.8-.7-.2-1-.8-1.1-1.5-.4-2-1.8-2-3.3-1.6-1.3-.7-1.8-2-2.2-3.3v-2c-2-4.4.6-8.2 2-12z" style="fill:#b18463"/><path d="M109.6 141c-.6 2.7-1.4 5.3-2.9 7.6-1.4-3.4-1-6.2 2.9-7.6z" style="fill:#c5ab95"/><path d="M106.6 135.7c1.6.2 2.5 1 1.9 2.7-.4 1.1-1.3 2.2-2.5 2.2-1.7 0-1-1.7-1.3-2.7-.3-1.6.5-2.2 1.9-2.2z" style="fill:#b8b7b7"/><path class="st64" d="M103.9 159.8c2.2-2.1 3.5-.4 4.8 1.1-1.2.9-1.9 2.9-4 2.1-.6.1-1.2.1-1.8.2.4-1.2.7-2.3 1-3.4z"/><path class="st60" d="M106.6 135.7c-.6.7-1.3 1.5-1.9 2.2l-.9-1.8c.7-1 1.4-1.9 2.2-2.9.6-.4 1.2-.9 1.8-1.3 2.1 1.9-.8 2.5-1.2 3.8z"/><path class="st45" d="M112.6 129.9c1.3.6 2 1.7 2.1 3.1.3.2.4.4.3.7-.1.2-.2.3-.3.3h-.2c-2.6-.4-2.9-2-1.9-4.1z"/><path d="M109.7 161.9h2c.9.8 1.9 1.3 2.9 2 1.8 5.7-4.2 6.6-6.1 9.9-1.6-.6-3.1-1.3-4.7-1.9.2-.6.4-1.1.5-1.1 6.7 0 7-3.9 5.4-8.9z" style="fill:#a67f61"/><path d="M104.7 162.9c1.4-.6 2.2-2.2 4-2.1 0 .4 0 .7.1 1.1-.3.6-.6 1.1-.9 1.7-.4 1.1.2 3.1-1.7 2.8-2-.2-1.2-2.2-1.5-3.5z" style="fill:#938c84"/><path class="st24" d="M108.8 174c3 2.9 3 2.9-3.1 4.9-.1-2.3 3.4-2.5 3.1-4.9z"/><path d="M130.5 48c.1-3.8 1.3-7.3 2.5-10.9.9-.7 1.8-1.4 2.8-2.1 3.3-.6 3.6-4.3 5.9-6 1.1-.4 2.3-1.1 1.6 1.2-.6 2 .9.8 1.6.8 1.4 1.6 1.4 3.2.2 4.9-1.3.8-3.2.9-3.1 3.1-1.6 2.9-.8 6.8-3.6 9.2-1.9-.4-1.5-2.1-1.8-3.3-.4-1.4-.7 0-1.1.1-1.9.8-2.4 3.6-5 3z" style="fill:#a37f62"/><path class="st68" d="M143.8 36.1c1.3-1.5.8-3.3.9-5 1.3-.7 2.1-2.1 3.8-2.2V30c-.3 1.9-.3 3.9-.7 5.8-.5 2.3-1.5 4.6-4.6 2.9-.4-1-.3-1.9.6-2.6z"/><path d="M154.4 13.8c-1.9 1.3-2.3 3.6-3.8 5.2-1.1 0-1.3 2.2-2.7 1.2-.3-.2.2-1.5.4-2.2 2.3-1.1 2.7-5 6.1-4.2z" style="fill:#d0b8a3"/><path d="M141.6 29c-1.2 2.3-1.6 5.1-4.1 6.7-1 .7-1.8 1-1.8-.7.7-1 1.3-2 2-3 1.7-.5 1.8-3 3.9-3z" style="fill:#dbbfa6"/><path d="M130.5 48c1.4-1.3 2.8-2.7 4.2-4 1.8 1.9.6 3.7-.5 5.3-2.2 3-3.3 6.4-3.6 10-1.2 4.3-2.6 8.5-2.4 13.1.1 2.6-1.1 5.2-4.3 5.7-2.2-1.5-2.2-3.8-2.1-6.1.4-1 .8-2 1.2-2.9.5-5.4 2.8-10.1 5-14.9 2.7-1.3 1-4.4 2.5-6.2z" style="fill:#a58062"/><path d="M212.4 44.8c4.3-2.3.6-4-.4-5.9-.4-.7-2.2-.8-1.3-2.1.9-1.4 2-.1 3 .1 8.5 2.3 8.5 2.3 8.9 10.9.1 1.6-.1 3.3.7 5.1-1.7-2.1-4.2-.5-6.2-2-1.6-1.2-1.3 1.2-.9 1.9 1.6 2.9 1.6 6 1.4 9.1.8 1.3.3 2.6-.2 3.9-.4 2.3-.9 4.5-1.5 6.8-.3 1.3-.8 2.8-2.4 2.6-2-.2-2.2-2-1.9-3.4.6-3.1.5-6.2.6-9.4 0-1.9-.8-3.5-1.2-5.3-2.3-4.4-.7-8.4 1.4-12.3z" style="fill:#452c21"/><path class="st73" d="M233.7 53c0 1.9 1.7 2.2 2.9 3 0 1.4-.1 2.8-.1 4.2-.5 1.3-.8 2.8-2.8 2.1-.3-.1-.5-.4-.6-.7-.3.2-.3.4-.1.8.4.7.5 1.5.5 2.4.1 1.9-1.7 4.5 2 5 1.8 1.4 1.6 3.5 1.9 5.4.2 1.3.5 3.1-.9 3.5-2.1.7-1.7-1.8-2.5-2.8-.2-.6-.7.2-.1-.1.1 0 .2.1.3.4.2 1 .5 1.9.2 2.9-.4.8-1 1.2-1.8 1.2-3.4-1.8-1.5-5.2-2.5-7.8-.5-1.4 1.7-4.2-1.8-4.3-3.4-2.9-4-8.6-1.5-13.4 2.3-.3 4.2-.5 4.1-4-.1-2.8 1.1-5.8 1.1-8.8 1.4 3.7-.4 7.6 1.7 11z"/><path d="M226.7 54.9c.3 4.4-.9 9.1 1.8 13.1 2.1 2.5 1.9 5.4.9 8.2-3 2.2-3.4-.9-4.6-2.4-1.3-2.1-1.3-4.6-2.6-6.7-.1-.5 0-.9.3-1.3-.1-3.8.5-7.4 2.1-10.8.7-.6 1.4-.6 2.1-.1z" style="fill:#cb9c7d"/><path d="M222.5 65.8c.1.4.1.7.2 1.1.5 3.3 1.1 6.7-.6 9.9-3.1 1.8-3.9-1.2-5.5-2.6-1.6-3.1-.3-6.2.1-9.3.3-1 .7-2 1-3 .7.2 1.7-2.7 2 .2.2 1.9-.3 3.8-.5 5.9 1.9.3 1.6-2.6 3.3-2.2z" style="fill:#b27a5b"/><path d="M218.4 22c.4-.3.8-.6 1.2-1 .3 1.5 1 2.8 2.1 3.9.5 1.5 1.4 3 1.5 4.6.2 1.8-.9.3-1.4.3-.7-1.3-1.4-2.6-2-3.9-.5-1.3-1-2.6-1.4-3.9z" style="fill:#a58c80"/><path class="st73" d="M226.7 54.9c-.7 0-1.4.1-2 .1-.3-2.1-.6-4.1-.9-6.8 2.8 1.9 3 4.2 2.9 6.7z"/><path d="M227.4 37.4c-1.6-1.6-2.3-3.1-2.4-5.5 2.3 1.4 2.7 3 2.4 5.5z" style="fill:#8e7668"/><path d="M143.8 39c2.1-1.3 4.1-2.4 2.5-5.5-1-2 1.1-2.6 2.3-3.6 1.6.2 1.3-2.6 3.1-1.9 1.3 1.2 1.3 2.7 1.2 4.3-.5 2.9-1.6 5.5-4 7.7 1.5-.7 3.3-2.3 3.6.9-.1 2-1.2 3.7-2 5.4-1.3 3.4-4 6-4.8 9.6-4.4 10.9-4.7 22.3-4.3 33.8.2.5.2 1 .2 1.6-.1.5-.2 1-.5 1.5-1 .8-2 .3-2.9-.2-1.1-.7-2-1.7-2.2-3.1.7-4.6-1.5-8.7-1.7-13.2-1.3-4.2.4-7.6 2.3-11.2 4.1-7.7 5.9-16.2 6.6-24.9 0-.4.3-.8.6-1.2z" style="fill:#5e3723"/><path d="M189.6 12.2c-1.9 5.5 1.5 7.6 5.9 9.1.2 2.6-1.3 4.3-2.9 6-1.7.2-2.6-.9-3.3-2.3-1.4-4-5.5-5.8-9.7-3.9-3.7 1.7-7.7 1.2-11.6 2.1-1.3.3-3 .2-3.6-1.7 3.2-3.5 7.8-1.1 11.4-2.9.5-.3 1.3-.1 1.9-.4 1.4-.8 2.3-3.2 4.5-1.2 1.6 1.5 2.1-.6 3.2-1.1 1.8-.9 1.5-4 4.2-3.7z" style="fill:#b48272"/><path d="M172.7 18.1c-3.1-.7-6.5 1-9.6-1.8-1.4-1.3-3.8 1.1-6.5 2.5.5-3.7 2.9-4.8 5.1-4.6 4.8.3 9.6 1.1 15.2.8-1.6 2-3.6 1.4-4.2 3.1z" style="fill:#482b23"/><path d="M151.8 32.9c0-1.6-.1-3.2-.1-4.8 2.5-1.4 5.4-2.3 7.1-4.8.8-1.1 1.8-.8 2.8-.5.5.9.2 1.7-.4 2.2-3.5 3.2-4.7 7.5-6 11.8-.4 1.4-.2 3.6-2.8 3.1-1.4-2.2-.4-4.7-.6-7z" style="fill:#c99786"/><path d="M161.7 23.1c-1 .1-1.9.1-2.9.2 2-3.2 4.9-4.5 8.7-4.3 1.7.1 3.6.6 5.2-.9h.1c1.7 0 3.3 0 5 .1-2.6 1.4-5.4 1.8-8.3 1.9-1.8 0-3.5.5-4.8 2-.1.7-.5 1.2-1.1 1.5-.7.1-1.4 0-1.9-.5z" style="fill:#986453"/><path d="M192.7 26.8c-.5-2.6 1.8-3.8 2.8-5.6.1-.1.1-.3.2-.5.4-.2.7-.1.9.2-.3 3.6 1.3 6 4.6 7.4 1.5.6 4.5 1 1.4 3.9-1.7 1.5.2 3.6 1.5 4.5 2.4 1.9 2.2 3.6.6 5.7-.2.5-.6.7-1.1.5-4.5-4.6-6.6-11.1-10.9-16.1z" style="fill:#965f4a"/><path d="M196.6 21c-.3-.1-.6-.1-.9-.2-1.3-2.3-1.1-3.3 2-3 4.9.4 7 4.3 10 7.2-4.7 1.4-8.3-.2-11.1-4z" style="fill:#482e24"/><path d="M212.4 44.8c1 3.8-2.9 7.3-.5 11.1-.2.1-.4.2-.6.4-3.1-.4-4.1-3-5.5-5.2-1.4-2.9-.9-5.2 1.8-7 1.3 2 3.5-1.9 4.8.7z" style="fill:#8f6453"/><path d="M207.6 44c-.1 2.3-2.9 4.3-.8 6.9-.4.3-.9.4-1.4.3-2.3-1.9-3-4.4-2.5-7.3.2-.5.6-.8 1-1 .3-.1.6-.2.8-.4 1 .5 1.9 1 2.9 1.5z" style="fill:#cc9986"/><path d="M120.8 188.7c-1-3.1-.9-2.9 2.4-3.9 1.6-.5 2.3-3.3 1.2-3.9-2.5-1.4-.4-2.8-.6-4.1 1.2-2.7 3.1-5.1 3.3-8.2.2-3.5 3.6-2.1 5.3-3.3 2.1-.4 2.1 2.7 4.2 2.4.6-.2 1.2-.3 1.8-.2 2 2.5-1.9 5.9 1.2 8.3-.5 8-.1 16.1-4.2 23.6.7-.8 1.2-1.7 1.9-2.4 1.2-1.3 2.5-3 4.5-2.6 2.6.6 1.5 2.9 1.7 4.6.1.7.6 1.2.9 1.8.3.9.4 1.8-.1 2.7-1.4 1.5-3 .1-4.6.3-2.6.4-2.3 2.9-2.3 4.3.2 4.8-1.9.3-2.6.7-2.5-4.3-2.7.5-4.1 1-5.9 2.1-9-.2-8.1-6.1.3-2.1-.6-3.9-.9-5.8 1.8-1.6 4.1-2.9 3.6-5.9 0-1 .2-1.9.1-2.9-.7.3-1.1 1.1-1.9 1.3-1.4.3-2.3-.3-2.7-1.7z" style="fill:#3f281d"/><path d="M109.7 203.9c-1.6-3.2-1.5-6.3 1-9.1.7.4 1.3.7 2 1.1.4 3.2 1.6 6.7-3 8z" style="fill:#3e2b1f"/><path class="st68" d="M143.5 39.8c1.7.8 2.4 1.6 1.5 3.7-3.5 8.6-3.3 18.5-9.4 26.3-1.5 2-.4 4.1 0 6.2-.9.5-1.7-.1-2.5-.4-3.7-.1-2.7 2.7-2.6 4.6.1 6.7-1.6 12.7-6 17.9-3.3-2.1-1-4.3-.1-6.4 1.5-3.4 5.7-6.8-.5-9.9-.6-.3-.1-2.5-.2-3.8 4.9-3.5 1.9-9.3 3.8-13.7.7-1.8.7-3.9 2.1-5.4 1.4-1.6 3.2-2.7 5.1-3.7 1.2-.6 2.2-.6 2.8.8.5 1.7-.3 3.1-.4 4.1 1.2-2.2.1-5.5 1.1-8.4 1.4-3.8 1.6-8 3.9-11.6.4-.3.9-.5 1.4-.3z"/><path d="M124.6 98.1c.1-5.2 5.1-8.7 4.5-14.3-.2-2.1-.3-4.5-.3-6.7 0-2.6 2.3-3.5 3.9-4.4.9-.5.7 1.4.9 2.3 2.1 3.3.1 6-1.3 8.7-.9 1.7-2 3.6 1.6 3.1 2-.2 1.9 1.9 2.7 3l2.1 2.1c.8 2.6 1 5.4 1.5 8.1-.1.4-.4.8-.8 1.1-1.8.1-2.9-1-3.7-2.5-.2-.3-.1-.6.1-.9-.4.5-.3 1.1-.6 1.7-.6 2.2-3.9 1.2-4.3 3.6-4.2 2.8-5 2.4-6.5-2.5 0-.2 0-.5.1-.7.1-.5.1-1.1.1-1.7z" style="fill:#714527"/><path d="M119.6 124.9c-3 1.7-3.9-.7-3.7-2.5.2-2.2-.4-4.2-.3-6.4-.1-3.1 4-4.7 3-8.2.1-2 .1-3.9.2-5.9.7-1.3 1.3-2.6 2-3.9 1 1.3 2.6 1.3 3.9 1.9l.2-.1c.4 1.1.8 2.2-.2 3.2-1.8.6-1.6 2.1-1.7 3.5-.5 1.5 1 2.2 1.3 3.4 0 1-.4 1.8-.8 2.6-3.2 3.6-4.1 7.9-3.9 12.4z" style="fill:#cca88c"/><path d="M120.4 97.6c-1.9-2.6-2.1-5.2.2-7.7 1.8-.9 2.9-2.5 4.6-3.9-1.5 3.9-3.2 7.8-4.8 11.6z" style="fill:#805737"/><path d="M218.7 144.1c-8.1 9.9-16 20-23.1 30.7-2.6 3.4-5.2 6.8-7.9 10.1-2.5-.5-2.1-2.2-1.1-3.4 1.5-1.9 2.1-4 2.9-6.2.8-2.2 2.7-4.2-1.5-5.3-2-.5-1-3.1-.1-4.7 1.8-1.3 4.8-.5 5.8-3.2 1-2.8 3-4.4 5.4-6.1 3-2.1 7.1-3.6 6.9-8.4-.4-.7-.7-1.5-1.3-2-1.5-1.3-2.5-.4-3.4.9-.1 5.9-5.2 8.7-8.3 12.5-1.5 1.8-5.9 1.9-8.9.2-2.8-1.5-3.9-4-3.4-7.2.3-2.1.6-4.3.1-6.4-2.3-9.2-3.4-10.1-13.2-10.6-2.7-1-4.7-2.7-5.5-5.6.1-2.8 2.1-3.1 4.2-3 3 0 6 0 8.9.1 7.3.9 13.1-2.8 18.8-6.4 2-1.2 4-2.8 6.4-1.5 2.7 1.4 2.9 4.2 3 6.9.1 2.4-2.3 5.2-.2 7.1 2.9 2.7 5.9 5.4 9.8 6.6 1.6.5 3.3.7 4.5 1.9 1.1.8 1.7 1.7 1.2 3z" style="fill:#fcdbd1"/><path d="M167.6 134c1.3-.2 2.6-.5 3.9-.4 3.9.2 7.1.6 8.5 5.6 1.3 4.8 3.5 9.1 1.8 14.3-.9 2.8 2.6 5.8 5.6 5.3 2.5-.4 4.4-2.2 6.4-3.5 4.1-2.8 5.4-6.2 6.6-10.3 1.5.7 1 2.7 2.3 3.5 1.6.3 2.1-2.3 3.8-1.5 1.5.8 2.5 1.9 1 3.4-2.4 2.4-4.4 5.5-7.6 6.8-2.8 1.1-4.4 3.1-5.2 5.8-2.7-2-4.3-.1-6 1.6.4 1.9-3.5 6.4 3.2 4.8 2.4-.6 1.3 2.4.4 3.6-2.4 3.2-2 7.9-5.6 10.5-.1 0 .5 1 .8 1.6-.9 2.7-3 3.9-5.4 5.1-4.6 2.4-9 5.2-13.5 7.9-4.6 1-8.8 3.2-13.1 4.9-.2-7 8.4-15.1 15-14 2.1.4 3.9 1.3 5.1-1.5.6-1.3 2.2-1.1 3.6-1 2.2 0 3.8-.8 4.1-3.3.1-.4.2-.9.3-1.3.2-1.1 2.5-3-1-2.6-.3-.3-.5-.7-.6-1.2-.1-2.5.3-5 .1-7.5-.1-2.1-.5-4.1-2.6-5-4.9-2.1-5-6.1-4-10.4.3-1.6 1.1-3.1 1.4-4.8.2-1.5.2-3.8-1.2-3.9-5.9-.4-5.9-5.3-7.6-9-.6-1.2-1.1-2.3-.5-3.5z" style="fill:#f6c9bf"/><path d="M218.7 144.1c-.7-1.4-1.7-3-3.1-2.9-5.9.4-8.6-5.2-13.5-6.8-1.7-.5-1.6-2.4-1.3-3.9.2-1.1.8-2.2 1.2-3.3.9-2.9.4-5.9-1.8-7.7-2-1.6-3.8.8-5.6 1.9-5.8 3.7-11.7 7-18.9 6.4.1-2.6 2.2-3.1 4-3.7 4-1.4 7.4-3.5 10.6-6.2 3-1.8 5.8-4.1 9.5-4.5 2.2.2 4.8-1.1 6.6 1.3.7 1.2.8 2.5.8 3.8.2 5.1 2.5 9.5 4.9 13.8 1.4 2.5 3.9 3.4 6.4 4.3 2.1.8 4.6 1.7 3.3 4.9-1.1 1-2.1 1.8-3.1 2.6z" style="fill:#f7cabb"/><path d="M221.7 141.7c-.3-1.9-1.5-3.2-3.1-3.4-6.2-.9-8.6-5.3-10.5-10.4-1.1-2.9-2.6-5.7-2.3-9 .6-.6 1.1-1.1 1.4-1.9.5-1.5.6-3.6 2.8-3.3 2 .3 1.9 2.4 2.1 4 .1 1 .2 1.9.5 2.9.4 2.6.9 5.1 1.4 7.7.3 1.5.8 2.4 2.3 2.7 1.4.2 2.7 1 4.2 1.7-.7-4.1-1.9-7.8-1.6-11.6.8-1.4 2-2.3 2-4.2.1-2.8 2-4.1 4.9-3.1.6.6 1 1.5.8 2.3-2.2 7.2.3 13.1 4.7 18.6 1 1.2 0 2.1-.8 3-.6.5-1.2.7-2 .4-.6 0-1.2.1-1.8.1-1.8-.7-1.3 1.1-1.9 1.7-1 .5-2.1 1.2-3.1 1.8z" style="fill:#c88464"/><path d="M224.8 139.8c-.4-1-.8-2.1-1.1-3.1-.1-.2.2-.6.3-.9 1.5.1 1.9 1.4 2.7 2.4.3 1.3.5 2.5.8 3.8-1.3-.2-1.7-1.6-2.7-2.2z" style="fill:#d4ad96"/><path d="M249.6 139c-.2 1.8-1.5 1.8-2.8 1.9-1.9.1-3 1-3.2 2.9-1.7-3.2-5.1-3.5-7.9-4.8.2-.4.4-.7.8-.9.7-.4 1.5-.7 2.2-1.1.7-.5 1.3-.9 1.5-1.8.2-1.2-.4-2.6.7-3.7.7-.3 1.3-.3 2 0 1.5.9 2.2 2.4 2.6 4 .1 2.1 1.8 2.6 3.2 3.4.3 0 .6 0 .9.1z" style="fill:#4f3e2a"/><path d="m236.6 138.8-.9.3c-2.3-.9-5.1 1.7-7.1-1l1.3-1.3c2.4-.3 5.4-2.2 6.7 2z" style="fill:#8e7764"/><path d="M248.7 138.9c-1.6-.7-6 2.2-3.9-3.1-2-5 .8-7.1 5.1-8.2 2.8-.5 3 1.8 3.7 3.5.6 1.4.5 3.4 2.9 2.9-.3 2 1.3 3.3 1.9 4.9l-8.4-1.8c-2-.4-2 .4-1.3 1.8z" style="fill:#6e4e35"/><path d="M184.5 182.6c.2 3.6-2.3 6.3-5.4 5.1-2.8-1-3.3.2-3.2 2.4.1 1.6.2 2.9-1.9 2-7-3-9.9-2.5-14.4 3.5-1.6 2.2-2.7 4.8-4 7.2-2.6 1-5.2 1.8-8 2-2.7-1.7-1.2-3.9-.6-6 2.6-2.6 5.3-5.2 8-7.7 3.8-3.2 5.2-7.5 5.8-12.2.3-2 0-3.4-1.4-4.9-2.9-2.9-3.4-8.4-1.4-11.9 1.9-3.3 4.7-3.1 7.8-1.9 1.2.6 2.5 1.4 3-.8.6-3.1 1.4-6.2-.8-9.1-1.1-1.4-2.3-2.9-1.8-5 1.8-2.5-1-6.4 2.5-8.4 1.1.5 2 1.4 2 2.6 0 3.4.9 4.7 4.9 4.8 3.7.1 3.6 4.2 2.6 7.2-.8 2.2-1.6 4.3-1.7 6.6-.2 2.8-.1 5.4 3.6 5.8 2.2.2 3.1 2.1 3.3 3.8.4 3.7 1.1 7.6-.8 11.2-.6 1.1-2.9 1.3-2.4 2.7.7 2.1 2.8.5 4.3 1z" style="fill:#f8c5ba"/><path d="M147.9 199c-.1 1.9-.9 3.8-.1 5.8-.1 1.6-.1 3.3-2 3.9-1.5.5-1.9-.6-2.2-1.7-.7-1-.8-2 0-3 0-1 0-1.9.1-2.9-.3-.7.3-1.7.4-1.6 2.4 2.2 2.1-2.2 3.8-1.6.3.3.4.5.3.8l-.3.3z" style="fill:#7e6252"/><path d="M248.5 109c.7.7 1.4 1.4 2 2.1 0 .3.1.5.2.8-.1.8 0 2-.5 2.3-3.8 2.9-3.9 2.9.4 5.8 1.2.6 1.9 1.4 1.3 2.8-1.1 1-2.4.5-2.9-.3-1.8-2.5-1.6.5-2.4.7-.5.1-.9.1-1.4-.1-5.5-4.8-3.8-10.2-1.3-15.7.2-.1.4-.3.6-.4 1.8-.1 2.7 1.3 4 2z" style="fill:#6a4a34"/><path d="M233.7 61.8c1.5.5 1.7-1.2 2.7-1.5.7 5.3 2.2 10.2 5 14.8.4 6 .5 12-1 17.9.8 1.9 1.3 3.8 1.5 5.8.1 2.6.2 5.3-.1 7.9-.2 1.1-.6 2-1.6 2.5-3.3-.2-2-3.8-3.8-5.2-3.3-5.9-1.3-11.5.9-16.4 0 .2-.6.7-1.4.9-4.9-2.2-1.9-6.2-2.2-9.5v-4.6c1 1.5 1.6 2.6 2.3 3.7-.7-2.8.3-5.7-1.3-8.2-1-.2-1.5-.9-1.5-1.9 1.4-2-.4-4.2.5-6.2z" style="fill:#cba180"/><path d="M246.5 123.1c1.5-6.4 3.3.4 5-.1 1 .3 1.5.9 1.2 1.9.7 6.1 3.6-.8 5.3 1.1 1.1 2.4.9 4.9-1.2 7.1-.1.3-.2.6-.4.8-.5.8-1.2 2.2-1.6 2.2-1.2-.1-1.8-1.3-2.1-2.5-.6-2.1-.2-4.7-2.9-5.8-.7.1-1.4-.2-1.9-.6-1.1-1.2-2.5-2.2-1.4-4.1z" style="fill:#543825"/><path d="M252.7 124.9c-.4-.6-.8-1.3-1.2-1.9l-.9-3c2.7-.9 4 1 4.6 2.9.7 1.8-.1 3.2-2.5 2z" style="fill:#ab8e78"/><path d="M240.8 97.9c-.1-1.7-2.2-3.2-.2-5 5.5-2.8 2.4 3.1 4.1 4.1-1 3.3.1 6.7 0 10-2.8 1-2.8-1-3-2.8-.2-2.2.4-4.4-.9-6.3z" style="fill:#744f36"/><path d="M132.7 165.9c-1.2.4-1.1 3-2.7 2.1-2.5-1.3-1.4-.1-1.7 1.4-.6 2.9-.6 6.5-4.5 7.5-.4 0-.8-.1-1.1-.1-.2-2.4.2-4.8 1.3-6.6 1.9-3 1.4-5.5 0-8.2.6 1.2.8 2.4 1.2 3.6.4 1.5 0 2.7-1.7 2.9-1.6.2-2.5-.7-2.6-2.3-.2-2.6 0-5.3-2.1-7.4-.3-3.3-2.6-6.5-1.1-10h1c3-.8 3.5 1.8 4.7 3.5.5 1 .8 2.1 1.4 3.1 1.1 1.9 2.1 3.8 3 5.8.4 1.5 1.4 2 2.8 1.9 1.3.5 3.3.3 2.1 2.8z" style="fill:#74462a"/><path class="st64" d="M117.6 148.9c.2 3.4 3.9 6.3 1.1 10-1.8-.2-2.5 1.4-3.8 2.1-2.4-1-.7-3.6-2-5.1-1.4-3.3.3-6.6.1-10.2 1.3 2 .4 6.5 4.6 3.2zM118.7 158.9c3 .8 2.5 3.5 3.1 5.6.3 1.2-.4 3.4 1.5 3 2.5-.5.2-2.3.2-3.5-.1-1.7-1.5-3.3-.8-5.4 6.3 6.3 2.7 12.3 0 18.3h-3c.6-1.3 2.5-1.3 2.1-2.9-.2-.5.6-1.1-.1-1.5-.1-.1-.5.3-.8.4-.8-4.7-1.5-9.4-2.2-14z"/><path d="M113 156c2.6.9.6 3.7 2 5.1-.1.9-.2 1.9-.3 2.8-2.5 1.7-2.9.2-2.9-2 1.8-1.7.5-4 1.2-5.9z" style="fill:#c29777"/><path d="M120.8 172.8c.3-1.2.3-2.7 1.7-3.2.2-.1.9.5 1 .9.7 1.8-.4 2.8-1.9 3.4-.2-.3-.5-.7-.8-1.1z" style="fill:#d09b7b"/><path d="M122.5 153.1c-1.2-1.5-2-3.3-3.9-4.1-2.8-4.5-.3-9.3-.8-14 .2-.4.5-.4.9-.1l1 1c.8 4.2 3 2.2 5 1.1 0-.4.1-.8.1-1.2 2.3 0 2.7 1.6 2.5 3.3-.3 2.9-2.4 4.4-5.1 5-1.7.8-1.5 1.9-.5 3.1 1 1.2 2.3 2.2 3 3.7.5 1.9.2 3-2.2 2.2z" style="fill:#ae805e"/><path class="st111" d="M118.7 134.9c-.3 0-.6.1-.9.1-1.4.9-2.2-.2-3-1 0-.3 0-.7-.1-1 1.8-.5 1.6-2.7 3.2-3.7 1.4 1.8.4 3.8.8 5.6z"/><path d="M121.6 142.7c4.6-.8 5.6-3 3.1-6.8-.1-3-2.6-4.5-4-6.8 1.4-1.1 3.3-1.8 3.1-4-.3-3.3 1.4-5.7 3.3-8 1.1-.9 2.2-1.1 3.5-.5.8.7 1 1.7.9 2.7-.6 2.5-2.9 4.8-.6 7.5.1.5.1.9.1 1.4.2 3.6-3.6 6.9-.6 10.6.9 2.7 1.3 5.4 1 8.2-.3.7-.8 1.2-1.5 1.3-2.2-.2-3.7-2.1-5.8-2.6-1.1-.8-3.1-.9-2.5-3z" style="fill:#825432"/><path d="M127.6 118c-1.1 2.5-3.1 4.4-2.2 7.9.7 2.5-2 3.6-4.6 3.2.4-1.6 2.1-3.6-1.2-4.2-3.1-5.3-.4-9.2 3.2-12.9 1.9 1.7 1 5.8 4.8 6z" style="fill:#a57552"/><path class="st111" d="M124.6 137c-.8 2.3-3.5 2.7-5 5.4v-6.6c.2-1.2.7-1.8 1.8-.7 1 1 1.9 1.9 3.2 1.9z"/><path d="M136.7 56c-2.7.2-4.2 3.2-7.1 2.9-.9-3.7.8-6.9 2.8-9.6 1.2-1.7 2.3-3.2 2.2-5.3.7-1.1 1.4-2.1 2.7-4.3.2 3.5.3 5.9.4 8.3 1.4 1.4.8 3.2.9 4.8-.7 1.1.3 3.1-1.9 3.2z" style="fill:#936f4e"/><path d="M137.8 52.8c0-1.6 0-3.2-.1-4.8 1-3.4 2-6.7 2.9-10.1 1.7-.3 2.4.4 2 2-1.1 4-2.1 7.9-3.2 11.9-.3.7-.4 1.8-1.6 1z" style="fill:#dfc0a8"/><path d="M142.7 40c-.4-.9-1-1.7-2-2 .1-2.2.3-4.1 3.1-1.9v3c-.1.2-.2.5-.3.8-.2-.1-.5 0-.8.1z" style="fill:#bd9476"/><path d="M216.6 65c.4 3-.7 6.2 1 9 .6 2.3 1.6 4.5 1.4 7-1.1 4.9-1.1 4.9-7.7 3.5-2.5-1.7-3.3-4.2-2.7-7 1.4-6.5 3.3-12.9 2-19.6-.1-.6.4-1.3.8-1.8.2-.1.3-.1.5-.2 3.2 5.9 1.5 12.2 2 18.5.9-3.2 1.8-6.3 2.7-9.4z" style="fill:#855441"/><path d="M228.7 77c0-3-.1-5.9-.1-8.9.6-.8 1.4-2.6 2.1-.3.7 2.3.7 4.8 1.1 7.2.2 1.7-.6 3.6 1.1 5 1.4 1.8 1 3.7.6 5.7-3.8 3.5-3.6-.6-4.6-2.4-.6-2.2-1.4-4.3-.2-6.3z" style="fill:#7b553f"/><path d="M232.6 85.9c0-2 .1-4 .1-6 .3-.3.7-.7 1.1-1 1.4 1.5.7 3.4.9 5.1.2 1.5-.6 3.4 1.8 3.8.3 2.3-.4 4.3-2.4 5.3-1.6.8-2.2-.9-2.6-2.2-.5-1.8.2-3.4 1.1-5z" style="fill:#bf8f6e"/><path d="M233.7 61.8c.1 2.1 3.6 4.1 0 6.2-1.4-.6-2.1-1.5-1.1-3-.1-2.1-1.9-4-.6-6.2 2 .1 1.4 1.8 1.7 3z" style="fill:#d4ac8d"/><path d="M232.7 64.9c.4 1 .7 2 1.1 3 .3.6.6 1.3.9 1.9-.1.6 0 1.4-.3 1.9-.5.8-1.3.3-1.4-.2-.4-2.2-2.7-4.3-.3-6.6z" style="fill:#82583d"/><path d="M221.6 77c.4-3.3-1-6.9 1.1-10 3.3.9 1.2 4.5 3 6.1.2 3.5 3.2 6.7 1.5 10.5-1.2 1.4-2.5.6-3.7 0-1.8-1.9-2.4-4.1-1.9-6.6z" style="fill:#c38e6d"/><path d="M226.5 84c.2-3.7-1.5-7.2-.8-10.9 1.4 1 1 3.4 3 3.9.4 2 .8 4 1.1 6 .3 3.7 1.9 7.7-2.7 10.2-3-2.9-2.5-6-.6-9.2z" style="fill:#e3b28f"/><path d="M221.6 77c1.5 1.7 1.3 4 2 6 2.2 5 1.1 10.5-3 14.3-2.4.1-5.4 1.6-6-2.6 4.7-2.1 4.3-7 5.7-10.8.1-.2.2-.4.1-.7-.1.3-.1.6-.2 1-.2.7-.1 1.7-1.3 1.8-2.1-1.2 0-3.5-1.2-4.9.8-2.4-2.1-4.7-.2-7.1 1.9.4 2 3 4.1 3z" style="fill:#a96c47"/><path class="st125" d="M140.5 91.2c-2.4-11-.3-21.6 2.4-32.2.4-1.4 1.1-2.8 1.7-4.1 2.9-5 6-6.2 10.9-3.9 1.5.7 3.3 1.4 3.1 3.4-.2 1.9-2.1 1.7-3.5 2-.5.1-1 .2-1.4.3-.3.1-.6.3-.9.4l-.3.3c2.7-1 4.4.2 5.9 2.3.8.8 1.8 1.3 2.6 2 2.9 4.2 1.8 9.2-2.4 11.5-2.7-2.2-3.5-5.9-6.7-7.8-3.6-2.1-4.4-1.9-5.3 2.2-.4 1.8-.4 3.6 0 5.4.7 2.7 1.9 4.2 4.9 2.7 1.3-.6 2.8-1 4.3-.1.9 3.5 3.4 6 5.5 8.7-.8 2.7 4 3.7 2.1 6.8-4.3.5-8.1-2.8-12.6-1.7-3.8-2.1-7.2-1.4-10.3 1.8z"/><path d="M139.8 100.8c-1-2.8-3-5.6-1-8.8.6.3 1.2.6 1.7.9 3.5 1.3 3.7 5.2 5.9 7.6 1.4 2.9 3.3 5.5 5.1 8.2 1.4 3.5 4.3 6.2 4.8 10.2-.2 2.9-1.3 5.6-2.7 8.1-1 1.3-1.5 2.9-2.7 4-1.7.5-2.7-.6-2.7-1.9 0-2.8-2-4.7-2.4-7.2-.2-.4-.3-.9-.4-1.3-.9-2.6-1.2-5.1.4-7.6.9-1.3.7-2.8.1-4.3-.4-.6-.6-1.4-1.2-1.8-1.6.4-.7 3.7-3.1 2.8-1.6-.7-1.9-2.5-2.1-4.1-.2-1.6-.2-3.3.3-4.8z" style="fill:#4c2d1d"/><path class="st127" d="M161.7 23.1c.5-.1 1.1-.2 1.6-.2.5-.2 1-.3 1.4-.1 1.3 1.9.4 3.6-.7 5-2.6 3.3-3.4 6.9-3.1 11 .3 4.8-4 7.7-5.6 11.7-3.1-.2-6.3-.1-5.8-4.7l2.4-4.5c.2-.5.2-1.2.9-1.2 1.7-2.2 1.3-5 2.1-7.5 1.3-4.1 3.3-7.3 6.8-9.5z"/><path d="M140.5 91.2c3.6-6.3 4.5-6.6 10.2-2.3 2 0 1.9 1.6 2.3 2.9 0 3.9.3 7.8-3.5 10.4-1.2.2-1.9-.5-2.6-1.3-2-3-2.9-6.8-6.2-8.9-.2-.2-.3-.5-.2-.8z" style="fill:#fbe0d5"/><path d="M149.5 45.8c1.1 2.9 3.2 4.2 6.2 4 3.4-1.3 5.4 1 7.7 2.8 2.2 2.9 4.7 5.7 3.1 9.8-2 2.2-4 .9-5.9-.2-1-.2-2.2-.1-2.9-1.1.7-1 2.7-1.6.2-3.2-1.7-1.1-4.1.1-5.2-2.1 1.5-1.4 3.5-.3 5.2-.9-4.3-5-8.5-4.9-13.3.1.3-3.9 3.6-6 4.9-9.2z" style="fill:#c69186"/><path d="M136.7 89.9c-.6 0-1.7 1.3-1.6-.5 0-.9 0-2.3-.8-1.7-1.6 1-2.9 2.9-4.2.2-1.1-2.2.3-3.9 1.8-5.8 1.5-2 1.8-4.6 1.9-7.1.7.3 1.3.7 2 1 .1 3 .9 5.8 1.8 8.7.5 1.8.1 3.6-.9 5.2z" style="fill:#aa7651"/><path class="st125" d="M140.7 91.9c5.3.1 4.8 5.2 6.9 8-.5 1-1 1.7-2.2 1.1-2.3-2.3-3.3-5.4-4.9-8.2.1-.2.2-.5.2-.9z"/><path d="m152.8 40-.9 1.2c-.8-3.5-2 1.2-3.1-.5-.2-2.8 2.2-5.1 3.1-7.8 1.5 2.2.8 4.7.9 7.1z" style="fill:#885845"/><path class="st132" d="M192.7 26.8c5.8 2.7 6.5 9.1 9.9 13.5.6.8.9 1.8 1.3 2.6l-.3-.1h-.3c-.3.4-.7.6-1.2.7-.5 0-.9-.1-1.4-.3-4.1-4.9-8-10-12-15.1-.2-1-.2-1.9.4-2.8.2-.2.4-.3.6-.5 1 .8 2 1.4 3 2z"/><path class="st132" d="M164.8 23.1c-.5-.1-1-.1-1.5-.2.5-.3.9-.6 1.4-.9 5.1-.6 10.3-.2 15.3-2.7 3.5-1.8 7.3.7 10.5 2.4 1.8 1-.7 2.1-.8 3.3l-.1.1c-3.8-.4-7.4-2-11.2-1.5-2.8 0-5.6.5-8.4.8-1.9.1-3.8.1-5.2-1.3z"/><path class="st133" d="M211.4 56.1c2.2 6.8 1.2 13.5-.9 20-1.1 3.5-.6 5.8 2.1 7.9 1.7 1.8 1.7 3.9 1.4 6.2-.1.5-.2 1-.4 1.5-2 2.5-2.6 5.6-3.9 8.4-1.5 2.7-2.9 5.4-4.4 8.1-.3.4-.7.7-1 1-3.6 3.2-8.3 4.7-12.1 7.6-1.5 1.1-3.6 1.9-5.5.2 2.4-5.1 6.5-9.1 9.6-13.7 3.5-5.2 6.2-10.3 4.5-16.7-.1-.5-.3-1.1-.1-1.5 2.8-7.2 2.9-15.1 6.1-22.2 1.2-2.7 1.7-4.9.1-7.5-.9-1.4-2-2.8-.9-4.6.3 0 .7 0 1 .1 1.3 1.7 2.8 3.5 4.4 5.2z"/><path d="M205.7 50.8c.6 1.8 1.7 3.2 2.8 4.6 1.9 2.4 1.9 5.5-.1 7.3-3 2.6-1.8 6.2-3 8.9-4 8.7-.9 18.6-5 26.9-3.3 6.9-7.6 13.4-13.8 18.4-.5.9-1.2 1.3-2.2 1.5-2.3-.7-4.4-.6-6.3 1.1-4.9 2.2-10 3.2-15.3 2.7-1-.2-2-.6-2.4-1.7.3-1.9 1.8-2.5 3.2-2.6 4.4-.4 8.3-2.5 12.5-3.2 3.4-.6 5.9-2.2 7.6-5.1 2.3-3.9 4.7-7.7 8.8-10 1.4-.8 1.9-2.3 2.3-3.7.7-3-.7-3.7-3.3-2.8-2.4.8-4.2 2.8-6.7 3.2-1.4-.6-2.4-1.6-2.5-3.2 1.7-2.9 1.3-5.3-1.3-7.5-1.4-1.2-2.7-2.5-3.6-4.1-.4-1.1-.3-2.2-.1-3.3.3-.4.6-.6 1.1-.8 4 .9 5.9 4.6 9.1 6.5 1.8.9 3.8 1 5.2-.2 3.8-3.3 7.3-6.8 9.4-11.4.1-1.5.1-3 .3-4.4.7-5.4.5-10.7-.5-16-.6-3-1.6-6.1.7-8.9h.7c.7 2.6.8 5.5 2.4 7.8z" style="fill:#f9cdc1"/><path d="M132.7 165.9c.5-1.9-1.6-1.1-2-2-.2-2.6 2.3-3.2 3.4-4.8 4.4-3.2 5.3-8.5 8-12.8 2-1.8 3.8-2.7 5 .7-1.1 5.5-.9 11.2-1.9 16.8-.2 1.2-.9 3.1 1.1 3.2 1.8 0 1.2-2 1.4-3.2.1-.7 0 .2 0-.5.1-2.5-1.6-6.1 1.4-7.2 3-1.1 5.4 1.6 7.3 4 .6 1.4.6 2.8.6 4.3 0 2.5-1.3 5.1.5 7.5 0 1-.3 1.9-1.4 2.3-.7 0-1.4-.3-2-.7-1-.5-2.2-1.5-2.2.7 0 3.4-1.2 6.7-.6 10.1-.6 2 .6 3.8.7 5.7-.4 1.1-1.2 2-2.1 2.7-3.1 2.8-4.8 1.5-6.3-1.8-1.3-3-.7-6.7-4.3-9-1.5-.9 1.2-4.1-.6-6-2.3-1.7-4-3.4-.8-6 .7-.6.7-1.4-.1-2.1-1.5-1.1.3-2.4-.1-3.5-.2 1.6-1.2 3.1-1 4.8-.8.9-1.5 1.9-2.4.1-.5-1.1-1-2.2-1.6-3.3z" style="fill:#522c1e"/><path d="M138.8 176c1 .4 1.6 1.1 1.8 2.2.4 1.4-2.1 4.7 2.4 3.4.7-.2.7 1.7.7 2.6 0 2.2.6 4.2 1.2 6.3.9 3.8 2.7 2.5 4.8 1.4 2.1 3-.1 4.5-2.1 6.1 0 2.8-3.2 1.3-4 3-2.2-.4-3-1.3-1.3-3.3.5-.6.7-1.6-.1-2.2-.8-.5-1.5.2-2.1.7-2.3 1.8-4.7 3.6-6 4.6 3.6-6.8 3.2-16 4.7-24.8z" style="fill:#693d2a"/><path d="M126.6 192c-1.2.9-1.3 4-3.1 3-2-1.1-.2-3.4 0-5.2 1.1-1.5 1.4-3.7 3.8-4.7-.2 2.6-.5 4.7-.7 6.9z" style="fill:#b07b5d"/><path d="M136.7 169.1c-1.9-2 .9-4.3-.4-6.5-.4-.7.7-1.3 1.6-1 1 .4 1.7 1.1 1.4 2.3-.3 1.4-2 2.3-1.7 4-.2.4-.5.8-.9 1.2z" style="fill:#795341"/><path d="M135.7 60.3c-.2 4.4-2.2 7-3.8 9.8-.5.8-1.2 1.8-2.4 1.3-1.1-.5-.7-1.7-.8-2.6-.4-4.8 3.2-6.4 7-8.5z" style="fill:#603d23"/><path d="M137.8 52.8c.6-.3 1.2-.6 1.7-.9-.6 3-1.2 6.1-1.8 9.1h-1v-4.9c1.2-.9 1-2.2 1.1-3.3z" style="fill:#b98a6b"/><path d="M146.6 108c1.4 2.4 2.6 4.4-.4 6.9-1.7 1.4.3 4 .4 6.1-.8.4-1.7.2-2.2-.4-2.6-3-5.9-4.8-9.2-6.7-.5-.8-.7-1.7-.8-2.7.4-3.6-3.1-5.5-3.6-8.7-.8-2.9-.8-3.2 1.6-2.4 1.6.5 1.9-.3 2.5-1.3 1.4-.2 1.6.9 1.9 1.8.7 2.2 1.9 1.2 2.9.4l.2-.2c2.1 2.4-.4 6 2.3 8.2 1.3-1.6-.9-4.7 2.2-5.3 1.1-.2 1.3 1.2 1.4 2.2-.6.5-1 1.3-.7 2 .1.4.9 0 1.5.1z" style="fill:#76482d"/><path class="st142" d="M130.7 102.5c3.2 1.9 4.9 4.7 5 8.4-2 0-4.5-1.2-5.2 2.1-.2 1-1.4 1.3-2.5.9-2.6-1-.8-3-1-4.6-1.2-.3-2 1.2-3.2.6-1.5-.4-2.9-.9-2.1-3 1.7-1 .5-3.5 2.3-4.3 1.2-.6.7-1.8.9-2.7 1.6 1.5 1.7 6.5 5.8 2.6z"/><path d="M139.6 101c-.1 1.3-.5 3.2-1.7 3.1-2.9-.3-2.2-3.4-3.2-5.3.1-.8.1-1.8 1.3-1 1.3 1 2.4 2.1 3.6 3.2z" style="fill:#b68564"/><path d="M123.7 109.9c.7-.7 1.3-1.5 2.2-2 .9-.5 1.6-2 2.9-1.1 1.3.9.1 2-.1 3.1-.2 1-2.7 2.1-.4 3 1.9.7 1.4-1.7 2-2.6.5-.8.5-1.9.8-2.9 2.4.2 2.6 3 4.6 3.4v3c1 1.1 2.1 2.2 1.5 3.9-.5.9-1.2 1.4-2.2 1.5-1.6-.5-2.6-2.3-4.4-2.3-1.1 0-2.2-.1-2.9 1.1-1.7-.3-2.5 1.6-4.3 1.6-.2-2.5-.4-5.1-.6-7.6l.9-2.1z" style="fill:#8b5b3a"/><path d="M123.9 102.6c-.4 1.6.6 4-2.3 4.3.1-1.5-.1-3 .2-4.4.6-1.9 1.4-1.3 2.1.1z" style="fill:#845c3c"/><path d="M162.7 120.9c5.6.1 10.9-.9 16-3 1.3-.4 2.7-.2 4 .2 2.5 2.2 5.5-1.3 8 .8-3.8 5.1-10.4 5.4-15.1 8.9-3.3 0-6.6.1-9.9-.2-1.9-.2-2.9.1-2.8 2.2l-.6.3c-3.9-3.1-1.3-6.1.4-9.2z" style="fill:#d9a899"/><path d="M168.7 136.9c-.4 2.3-1.9 4.4.1 6.9.9 1.2.6 1.5-2.2 1.2-1.3.6-1.9 2-3.4 2.2-1.9-.7-1.8-2.6-2.5-4.1-.4-1.4-.6-2.8-1-4.2-.2-.9-.4-1.9-.4-2.8.4-2.4.4-2.4 3.4-2.5.1 0-.1-.6-.2-.9-.3-.9-.8-1.8.1-2.7l.3-.1c1.6 1.4 3.1 2.7 4.7 4.1.4.9.7 1.9 1.1 2.9z" style="fill:#e4b7a6"/><path d="M188.8 164.5c-.1-2.9 1.3-4.7 4.1-4.8 2.4-.1 1.6 2 1.8 3.3-1.7 1.2-2.4 6.4-5.9 1.5z" style="fill:#332629"/><path d="M206.7 146.9c-1.5.7-1.4 3.8-4 2.9-1-1.5-2.1-3.2-.9-4.9 1.1-1.4 2.8-.3 4.2-.1.2.7.4 1.4.7 2.1z" style="fill:#e6ada3"/><path d="M205.9 144.8c-4 .5-4 .5-3.3 5-3.5-.4-1.5-3.3-2.1-4.9 1.8-1.5 3.6-2.9 5.4-.1z" style="fill:#b9847a"/><path class="st151" d="M134.7 208.9c-1.1 2.3-2.1 4.7-3.2 7h-1.9c.1-2.1 2.4-3.7 1.1-6-.3-2.2 1-3.4 3-3.4 1.3 0 1.8 1.1 1 2.4z"/><path class="st152" d="M126.6 192c.5 3.7-1 5.8-4.9 5.9-.2-1.7.5-3.5-.4-5.3-2.9 1-5 4.1-8.5 3.3.4-.5.7-1.3 1.2-1.4 3-1 6-2 6.8-5.7.9.4 1.9.7 2.8 1.1.6 1.2.4 3.6 3 2.1z"/><path d="M143.5 203.9v3c-2-.1-.7 4.2-3.2 2.7-2.3-1.3-1.4-3.8-.6-5.8 1.3-3.6 2.5-.3 3.8.1z" style="fill:#5f2760"/><path class="st154" d="M234.6 249.8h-90.9c-.8-2 .4-3.2 1.5-4.5 1.8-1.2 3-3 4.7-4.4 4.4.6 6.9-3.3 10.6-4.6 11.1-4.2 22.5-6.7 34.2-8.5 2.5-.4 5-.9 7.4-1.9-12 3-24.6 3-36.5 6.8-3.9 1.2-8.2.9-12.1 2.7-1.1.5-2.3-.1-3.1-1.1-1.3-2.7.7-4.8 1.2-7.2 1-2.3 3.2-1 4.8-1.5 2.7-.9 5.4-1.6 7.6-3.5 7.5-5.9 15.5-11.2 23.2-16.9 2.5-1.2 4.6-3.1 7.2-4.3 5-1.6 8.4-5.1 11-9.5.3-1 .6-2 1.3-2.6 8.3-6.8 14-16 22.1-22.9 5.7-2.7 10.2-7.4 16.2-9.6 3.3-1.2 6.8-1.4 10.1-2.5 2.4-.8 7.7 4.8 8.9 9.2 2-1.7 3.9-3.1 5.4-5 2.8-3.4 4.5-3.5 7.5-.1 1.9 2.2 3.7 4.2 6.9 4.3 2.1.6 4.3 1 5 3.5-1.7 3-1 5.5 1.7 7.5 1.3 1 2.6 1.9 3.6 3.2.4.6.7 1.2.7 2-1.7 2.4-3.5 1-5.2.1-2.8-1.5-5.4-1-7.1 1.3-2.4 3.1-5 5.9-6.7 9.9-1.9 4.5-3.8 10.3-9.3 12.6-1.8.8-.5 1.7-.2 2.3 1 1.5-1.9 4.7 1.6 4.7 2.7 0 6 5 8.4-.8.8-2 3.4-1.5 5.4-1.5 2.1 0 3.9-.4 4.1-3.2.9-9.8 1.5-10.2 11.1-9.1.5.1 1 0 1.8-.3-3.9-1.6-6.1-3.5-2.8-7.5 2.4-2.9-1.2-6.1.2-9.1 1.7-1.4 3.1-.3 4.3.8 3.3 3.1 6.9 5.9 9 10.2v35c-1.1 1-2 2.3-2.8 3.5-2.1 3.2-4.3 4.6-8.2 2.9-3.4-1.5-6.8.1-10.1 1.2-5.7 2-11.3 3.8-17.5 2.4-.8-.2-1.8-.3-2.4.2-6.3 4.1-13.6 3.6-20.6 4.3-2.5.3-4.9.3-7.3-.7-5.2-2.1-5.3-2-7.8 3.1 0 .7-1.6.8-.2 2.1 1.9 1.8 2.8 4.3 2.1 7z"/><path d="M231.6 240.9c2-7.3 2.8-7.6 9.7-4.3.7.4 1.7.9 2.4.7 7.5-1.8 15.9 1 22.9-4 1.3-.9 2.6-1.8 4.1-1.2 6.3 2.5 12-.3 17.7-2.1 4.2-1.3 8.4-3.3 12.8-.4 1.5 1 2 .2 2.9-1.2 1.2-2.1 2.8-4.2 5.6-4.6v26h-41c-3.9-.9-7.1-3.3-10.7-4.8-7.8-3.2-16.1-3.4-24.4-3.6-.8 0-1.5 0-2-.5z" style="fill:#6b256b"/><path class="st156" d="M84.7 249.8c2.3-8.2 3.9-16.6 6.7-24.7 1.8-5.1 2.7-10.5 5.3-15.3 1.1-1.2 1.5-2.8 2.4-4.2 2-3.1 3.8-3.2 7-.7 1.1 2.3 1.2 5.3 4.3 6.3.5.5.8 1.1.7 1.9-1 2.8-2.5 3.9-5.2 1.8-1.2-1-2.6-1.5-3.3.2-2.7 7.1-8.7 13-8.2 21.4.2 4.9 1.5 6.3 6.3 5.1 5-1.2 10-2.3 15-.1.4 2.3-1.5 2-2.8 2.6 2.3.6 4.7.7 6.9 1.6 1 .4 1.8 1 2.3 1.9.3.8.2 1.5-.4 2.2h-37z"/><path d="M231.6 240.9c2.3-1.9 4.8-1.3 7.4-1 10.5 1.3 21.2 2.3 29.6 10h-34c-1.9-2.1-1.1-5.8-4-7.4.3-.6.7-1.1 1-1.6z" style="fill:#61205f"/><path d="M121.7 249.8c0-.7-.1-1.4-.1-2.1-.5-.9-1-1.9-1.1-3-.1-1.1.1-2.1.7-3 5.9-4.7 13.1-6.3 20.2-7.9 2.3-.5 5-.6 6.9 1.6.3.7.4 1.4.2 2.2-.6 2-2.7 2.6-3.9 4.1-2.6 3.6-6.7 2.8-10.2 3.4-3.8.6-7.4 1.2-9.8 4.7h-2.9z" style="fill:#4d194e"/><path d="M124.7 249.8c-.5-3.4 2.3-6 7.9-5.8 3.4.1 6.3-2.2 9.7-1.3.2.1.8-1.2 1.3-1.9 1.7 1.3 2 3.2 2.1 5.2-.7 1.3-1.3 2.5-2 3.8h-19z" style="fill:#642365"/><path d="M294.6 177.9h2c.3 2.8 3.2 6 1.7 8-3.7 5-3.7 7.2 3.1 7.2.3 0 .8.6.9 1 .2.7-.3 1.4-1 1.4-2.2 0-4.3 1.3-6.8.3-4.5-1.8-8.5 1.8-7.6 6.5.9 4.5-1.2 7.2-5.4 6-4.1-1.2-5.1.9-5.9 3.9-.7 2.6-1.7 3.6-3.1.6-1.5-3.1-4.3-1.8-6.6-2.1-2-.3-4.1-.5-1.4-3.1 1.8-1.7 1.4-3.2-1-4.1-.8-.3-1.6-.8-1-1.8.3-.5 1.2-1 1.6-.9 3.2 1 4.3-1.3 5.2-3.4 1.7-4 6.5-6.2 5.8-11.9-.2-2 4.5-4.9 6.8-7.4 2.8-3.1 6.3-3.4 9.6 0 1 1 2.2 1 3.1-.2z" style="fill:#782878"/><path class="st161" d="M194.6 201.9c-2.3 1.4-4 3.8-6.9 4.1-2.2-.4-3.9 2.8-6.3.9 0-4.9 4-6.4 7.3-7.7 4.5-1.9 7.9-4.8 10.6-8.7 3-4.2 6.1-8.2 11.3-10 3-1.1 5-3.8 7.1-6.1.8-.9 1.3-1.8 1.3-3.1.3-8.5.9-10.3 5.6-16.7-3.1.4-3.9 5.4-7.9 3.8-1.2-1.5.2-2.7.5-4.1 2.9-5.2 7.7-8 12.7-10.7 4.5 1 8.9 1.8 13.4-.2.7-.2 1.4-.3 2.2-.3 3.6 1.9 7.2 1.7 10.9.2.5-.1 1-.1 1.5-.1 1.3.2 2.4.7 3.2 1.9.5 3.1-1.4 4.2-3.9 4.7-1.6.3-3.3.5-5 .5-5.2-.2-9.2 1.2-12 6.2-2.4 4.4-7.9 6-10.6 10.5-6.4 4.3-9.5 11.5-15.2 16.5-2.9 2.5-6.7 4.3-7.8 8.5-4 3.1-7.4 7.2-12 9.9z"/><path class="st162" d="M164.7 222.9c-3.3 3.4-7.3 4.8-12 3.6-1.3 2.2-1.6 5.1-4 6.6-2.3-2.4-4.8-3.3-8.2-2.3-3.3 1-6.2-.6-8.5-2.8-1.4-1.3-3.8-2.6-1.2-5.1 1.2-1.2-.9-1.7-1.4-2.6-.7-.8-1.1-1.6-1.3-2.6-.1-1.1.3-1.9 1.1-2.6.6-.4 1.3-.6 2-.8 2.5-2.1 5.7-2.6 8.7-3.4 1.5-.4 3.5-.4 3.8 1.3.8 3.5 2.4 1.8 3.8.8 3.2-2.3 6.4-4.8 9.7-7 3.1-2.1 6-2.6 9.1-.4 1.4.8 3 .4 4.5.8.6.3 1.1.8 1.3 1.5.2 2.1-1 3.5-2.4 4.6-1.1.9-2 1.8-1.5 3.3.3 3.2-2.8 4.6-3.5 7.1z"/><path class="st163" d="M229.6 166.9c.4-3 2.2-5 4.6-6.8 2.8-2 5.3-4 6.7-7.6.9-2.4 3.8-3.3 6.5-3.6 2.9-.3 5.9-.8 8.8-.5 2.9.3 3.9-1 4.4-3.3.3-.4.7-.6 1.2-.6 3.4.8 6.2 2.4 8.7 4.9.5 1.2 1.3 2.2 2.5 2.8.7.5 1.5 1 1.7 1.9l8.9 8.9c-3.3 1.2-5-1-6.9-3-1.8-1.9-3.3-7.5-6.3-.6-.7 1.6-2.9 2.6-4.5 3.8-1.1.8-1.3 3.3-3.3 2.4-1.7-.8.1-2.3-.1-3.5-.2-1.2.3-2.9-1.9-2.6-.3 0-.9.1-.9.1-1.6-7.3-6.7-3.4-10.3-3-4.3.6-8.4 2.3-11.7 5.6-2.2 2-5.4 3.1-8.1 4.7z"/><path d="M195.7 216.9c-.6.8-1.2 1.6-1.8 2.3-.5.6-1.2 1.4-.4 2.1.4.3 1.3.3 1.8.1 7.4-2.2 15.2-3.3 22.3-6.7.4-.2 1.1-.4 1.3-.7 2.4-5.8 8.3-3.9 12.5-5.8 1.4-.6 3.1-.5 3.9 1.2 1 2.1-.5 3.1-2.1 3.8-8.4 3.5-16.8 6.8-26.1 7.9-8.2 1-16.3 2.9-24.4 4.4-1.3.2-2.6.3-3.9.4-1.4-2.5.5-3.8 2-4.8 6.6-4 12.2-9.5 19.2-12.8 1.5-.7 2.9-1.6 4.6-.7 1.4 2.9-.7 4.2-2.5 5.6-2.1 1.4-4.6 2-6.4 3.7z" style="fill:#5f205e"/><path d="M204.6 207.9c-4.6.6-8.5 3.2-11.5 6-4.6 4.3-11.5 5.8-14.5 11.9-3.5.1-6.6 2.2-11.7 1.7 13-9.9 26.4-16.9 38.7-25.6 7.1-3.2 14.1-6.3 21-10 3.2-.9 2.8 1.3 2.4 3-.7 3.3-2.9 5.9-5.8 7-4.6 1.7-8.8 4.3-13.5 5.9-1.6.6-3.3 1.6-5.1.1z" style="fill:#4c164a"/><path d="M150.6 233.8c.8.2 1.7.9 2.3.6 8.1-3.4 16.7-4.6 25.2-6.1 8-1.4 16-2.4 23.9-4.3 1.3-.3 3.6-1 3.9.8.4 2.2-1.7 2.7-3.7 3.1-9.8 1.9-19.8 3.2-29.4 6-4.7 1.4-9.4 3-14.1 4.5-.9.3-2.1.9-2.4 1.6-1.4 3.4-3.3 4.2-6.2 1.8-2-.6-2.1-2.1-1.9-3.8.7-1.4-.3-3.8 2.4-4.2z" style="fill:#571c57"/><path class="st167" d="M204.6 207.9c6.3-1.8 12.4-4.3 18.2-7.3 2.7-1.4 4.6-3.7 5.3-6.8.3-1.4-.5-1.7-1.5-1.9 1.9-2.6 3.6-7 6.9-5.8 2.5 1 1.2 5.6 1.1 8.7-.1 5.7-4.3 8-8.7 8.6-5.3.7-9.2 2.5-13.3 6.2-4.6 4-10.3 7.2-17 7.3 1.8-4.3 7.8-4.2 9-9z"/><path d="M164.7 222.9c-1.5-.1-1.7-.8-.7-1.8 1.6-1.5 2.9-3.2 3.7-5.2 1.6-4.8 8.4-9.2 14-9 2.2.5 3.6-3.6 6.1-.9-7.1 6.4-15.4 11.2-23.1 16.9z" style="fill:#471144"/><path d="M288.9 165.8c5.1 2.2 5.2 6.5 4.6 11.1-2-1.4-3.9-2.8-5.7-4.5-3.1-3.1-2.2-4.9 1.1-6.6z" style="fill:#62205e"/><path class="st161" d="M148.5 237.9c.5 1.3 1.1 2.6 1.6 3.9-.5 2.4-2.1 3.7-4.4 4.3-2.6-1-2-3.2-2.1-5.2.3-2.6 3.4-1.1 4.3-3h.6z"/><path class="st167" d="M226.6 191.9c-6.3 4.9-13.4 7.9-21 10 6.6-4.3 13.5-7.7 21-10z"/><path class="st170" d="M194.6 201.9c3.4-4 6.7-8.2 12-10-2.9 4.6-6.1 8.9-12 10z"/><path d="m148.5 237.9-.3.1-.3-.1c0-.7-.1-1.3-.1-2 .5-1-.4-2.3.8-3.2 1.4-2.1 1.9-4.7 4.1-6.3.5 2.8-2 4.7-2.1 7.3-.7 1.5-1.4 2.8-2.1 4.2z" style="fill:#9f699b"/><path class="st154" d="M278.8 239.8c-.3 1.7-1.8 1.8-3 1.9-1 .1-2.7.5-2.8-1-.1-1.4 1-3 2.4-3.3 1.7-.4 2.5 1.4 3.4 2.4zM291.2 234.1c1.1-1.7 2.5-2.7 4.9-1.7-1.4 1.8-3.2 1.5-4.9 1.7z"/><path class="st172" d="M102.7 187.8c2.2 3.7 1.4 8.2 3 12.1 1.6 1.7 1.6 3.5.6 5.5l-.6.6c-1.9-2.8-3.7-2.2-5.5.1-1 1.4-1.1 3.6-3.5 3.8 2-7.4 4-14.7 6-22.1z"/><path class="st152" d="M121.6 244.7v3c-.7-.4-1.4-.7-2.1-1.1-.8-2-2.1-3.6-3.8-4.8-5.9 0-11.9-.4-17.5 2.1-2.6 1.2-5.3-2.6-5.5-6.3-.5-9.8 6.6-16.6 9.4-25.1.8-2.5 3.2-.9 3.9.3 1.9 3.5 3.2 2 4.8-.1 3.4-1.2 6.4-.9 8.8 2.1 1.1 1.4 2.5 2 4.2 2.2 1.8.3 3.5.8 4.4 2.6.4 2.6-.8 4.6-2.4 6.5-2.1 1.7-2.7 3.9-2.3 6.4.3 4.4-2.9 8-1.9 12.2z"/><path class="st156" d="M127.5 219.8c-6.5-.2-10.2-7-16.8-7l-1-1c-.7-.5-1.5-1-1.3-2.2 1.1-1.9-.1-4 .5-5.9 2.3-2.1 2.8-4.9 3.2-7.7.3-.4.6-.7 1.1-1 1-.6 2.1-.7 3.2-1.3 5.9-3.2 6.3-3 6.8 3.6.1 1.6.7 3.2.7 4.8.3 7.2.3 7.2 6.9 7.4 2.8 2.7.7 4.5-1.2 6.3l-.9 1.8c.8 1.4-.2 1.9-1.2 2.2z"/><path d="M115.7 241.9c3.4 0 4.8 1.5 3.8 4.9-2.6-.3-5.2-.6-7.7-.9-1.2-.1-2.6-.3-2.5-1.8.1-1.7 1.7-1.1 2.8-1.2 1.3-.2 2.6.2 3.6-1z" style="fill:#481549"/><path class="st172" d="M108.8 209.8c.3.7.6 1.4 1 2-3.9-.2-3.4-3.5-4-5.9l.1-.1c2.6 0 3.9 1.2 2.9 4z"/><path d="M148.6 232.8c.1 1.1.2 2.3-.8 3.2-8.2-2.4-15.1 2-22.3 4.7-1.2.4-2.3 1.2-3.6 1.3-1.2-3.4 1.1-6.3 1.3-9.5.7-1.5 2.1-.9 3.3-1 .8 0 1.9.4 2.2-.4.4-1.2-1.1-1.7-1.7-2.6-.5-.6-.8-1.2-.9-2 1.2-2.2.7-5.3 3.6-6.5.8.3 1.7.4 2.2.9.9.8 2.6 1.4 2 3-.6 1.8-2.3 0-3.7.8 3.3 3.9 6.8 6.5 12.3 4.6 3-1.2 6.1-1.1 6.1 3.5z" style="fill:#6c266c"/><path d="m123.7 232.1-1.8 9.9c-.1.9-.2 1.9-.3 2.8-2.5-4.5.3-8.6 1-12.8.5-.4.8-.3 1.1.1z" style="fill:#9a6798"/><path class="st170" d="M181.6 206.8c-5.3 2-10.1 4.7-14 9-3.3-1-1.2-2.5 0-3.2 1.9-1.2 3.3-2.7 4-4.8-.5-1.6.9-2 1.7-2.6 4.9-3.9 8.9-8.5 11.9-14 1.2-2.2 2.9-3.5 5.2-4.3 4.3-1.3 7.5-4.1 10.2-7.7 4.5-6 9.1-11.9 12.9-18.4.7-1.3 1.4-2.7 3.1-3.1 3.2.4 3.7-3 5.8-4.2 1.5-.8 3.2-2.9 4.7-.9 1.5 1.9-1.3 2.4-1.9 3.6-2.3 4.5-8.1 8.1-4.3 14.4.6 1 .3 1.9-.4 2.7-3.2 3.2-5.9 7.4-10.1 8.7-4 1.2-6.3 3.6-8.1 6.7-3.9 7-10.5 10.5-17.2 13.9-1.9 1.1-2.6 2.7-3.5 4.2z"/><path class="st176" d="M216.6 157.9c-4.5 9.5-11.4 17.4-17.6 25.8-.6.8-1.5 1.5-2.4 1.7-7.9 2.2-11.6 8.8-16 14.8-2.3 3.2-5.3 5.9-9 7.6l-1-1c-1.7-1.8.4-4.2-.8-6.1-.3-.6-.7-1.1-1-1.7-.4-.6-.6-1.2-.4-1.9 3.8-3.7 8.9-5.4 13.3-8.2 2-1.3 3.8-2.5 5-4.6 2.8-3.4 4.7-7.4 8.3-10.1 6.1-5.8 13.2-10.4 18.5-17 1.2-1.6 2.4-3.9 5.1-2.4-.6 1.1-1.3 2.1-2 3.1z"/><path class="st177" d="M218.6 154.9c-2.8.2-3.6 2.7-5 4.4-4.8 6.1-12 9.7-16.9 15.8-.1.1-.8-.2-1.2-.3-.6-1.6.2-2.9 1.1-4.1 6.9-9.1 13.2-18.7 21-27.1 1-1 2.1-1.8 3.2-2.6 1.2-.7 2.3-1.6 3.8-1.7 1.5.1 2.6 1 3.8 1.8.8.8 1.9 1.5 1.2 3-1.7 2.8-4.8 4-7.2 6-1.6 1.3-3.5 2.3-3.8 4.8z"/><path class="st176" d="M230.1 144.3c-.3-.2-.5-.5-.7-.8-.4-.8-1-1.3-1.9-1.7-.2-.5-.7-1-1-1.5-.9-1.3.1-3.2 1.7-3.1 2.3 1 5 0 7.3 1.1 2 .6 7.3.7 8.9 1.7-.4 3.2-.3 2.1-.7 5.3-3.3 1.2-10.6.9-13.6-1z"/><path class="st177" d="M249.6 139c3.1 1 5.6 2.8 8.1 4.8-.4 0-.7.1-1.1.1-3.7 1.3-7.3.2-11 0h-2v-.1c-1.1-5.5 3.9-3.2 6-4.8z"/><path class="st163" d="M245.6 143.9c3.7-3.4 7.3 1.2 11 0-3.7 2.4-7.4 3-11 0z"/><path d="m168.8 197.9.9.6c0 .9-.3 1.7-1 2.1-2.8 1.6-.8 2.5.4 3.6.4 2-.9 2.6-2.5 2.8-6.6-4.2-10.3 1.9-14.7 4.6-1.5.9-3 2.3-4.6 3.4-3.5 2.3-3.5 2.3-4.3-2-.4-1.9-1.9-1.2-2.7-.9-2.9 1.1-6.2 1.5-8.6 3.8-.7-2.9 1-5 2.6-7 1.3-.4 2.1-1.3 2.3-2.7.3-1.6.9-3.3 3.2-2.5.5 1.9.7 4.4 3.8 2.7 2.3 1.1 3-1.1 4.3-2.1 2.3-1.4 5-1.7 7.5-2.8 2.8-1.3 5.6-2.8 8.5-3.7 1.6-.6 3.3-1.4 4.9.1z" style="fill:#441d44"/><path d="M166.6 207c.7-1.1 2.3-1.6 2-3.3-.9-2.1-.3-3.5 2.1-3.8 2.2 2.3.2 4.7 0 7-1.4.5-2.7 1.7-4.1.1z" style="fill:#2e1730"/><path d="M129.7 219.9c-1 2.3-2 4.5-3 6.8-1.1.8-1.8.9-2-.8 1.5-1.8 2.2-3.9 2.8-6.1l1.2-2.1c1.1.4.9 1.3 1 2.2z" style="fill:#9e6f9f"/><path d="M157.1 217.3c1.3-1.7 2.5-3.5 4.5-6.2-.4 3.7-1.8 5.5-3.4 6.9-.3-.3-.7-.5-1.1-.7z" style="fill:#af7eaa"/><path d="M274.3 150.8c.2 1.4-1.3 1.2-1.8 2-1.6-.3-2.8-.9-2.7-2.8 1.6-.3 3.1 0 4.5.8z" style="fill:#9a8fae"/><path d="M124.7 225.9c.5.6 1.1.9 2 .8.4.4.8.7 1.2 1.1.9 2 1.4 3.8-1.2 4.9-1-.2-1.9-.4-2.9-.7-.4 0-.7-.1-1.1-.1-2.3-3-.2-4.5 2-6z" style="fill:#111818"/><path d="M126.6 232.7c1.2-1.4 1-3.2 1.2-4.9.3.2.6.3.8.6.9 1.2 3.2 2 2.4 3.7-.7 1.6-2.8.6-4.4.6z" style="fill:#52194a"/><path class="st162" d="M170.7 199.9c-1.4.9-1.7 2.3-2.1 3.8-1.5-.2-3 1.2-4.8 0 1.3-2.5 3.9-3.5 5.9-5.1.8 0 1.1.5 1 1.3z"/><path class="st151" d="M184.5 182.6c-1.1 2.8-3.3 1.9-5.3 1.4-1.5-.4-1.8-1.5-1.4-2.7.8-2.4 2.6-2.7 4.8-2.4 1.5.5 1.7 1.9 1.9 3.2-.1.1-.1.3 0 .5z"/><path d="M184.5 182.1c-.6-1.1-1.3-2.1-1.9-3.2 1.3.6 2.3-2.7 3.7-.5 1.1 1.9-1.2 2.5-1.8 3.7z" style="fill:#f6a7a4"/><path d="M203.7 108c.2-.2.5-.3.8-.3 1.1.2 1.9-.4 2.8-.8 4-1.8 4.5-1.6 4.6 2.7 0 2.3 1.2 3.7 2.6 5.1 1.3 1.8 1.5 3.5-.4 5.1-.8.5-1.6 1-2.5 1.2-.5-2.2-.9-4.3-1.4-6.5-2.8.3.6 6.4-4.3 4.4 0-1.3 0-2.6-.1-3.9-.7-1-1.3-2-2.1-2.9-.9-1.4-1.2-2.8 0-4.1z" style="fill:#a56143"/><path d="M203.7 108c-.3 1.5.4 2.7 1.1 3.8-1.1 2.1-3.6 1.9-5.2 3.1-3.5.2-5.8 3.1-8.9 4.1-2.7-.1-5.3 3-8 0 .4-.8 1.4-.5 1.9-1.1l2.1-.9c6.7-.9 11.3-6.2 17-9z" style="fill:#d49a88"/><path class="st133" d="M199.6 114.9c1.2-2 3.2-2.5 5.2-3.1 1 .8 1.2 1.9.9 3.1-2-1-4.1.5-6.1 0z"/><path class="st188" d="M236.6 138.8c-1.8-2.3-4.6-.9-6.8-2l.9-1.2c-3.5-1.2-2.9-4.9-4.4-7.2-2.8-4.1-2.5-7.8-.8-11.9.3-.7 0-1.6 0-2.5-1.4-2-.6-3.7.7-5.2 1.3-1.5 2-3.3 2.7-5.1 2-2.9 3.3-2.3 3.9.8.6 2.9-.7 5.4-2 7.9-2 4.9-1.6 9.6 1.4 14 .2 1.5.2 3 .8 4.4.3 1.9 2.1 2.3 3.3 3.4 1.2 1 3 1.6 2.4 3.8-.6.7-1.3.8-2.1.8z"/><path d="M219.6 120.9c.9 4.7 1.8 9.4 2.8 14.3-2.9-.3-4-3.4-6.7-3.3-.9-.6-1-1.6-1.1-2.6.1-1.1.1-2.3-.3-3.4-1.1-3.6 0-6.1 3.7-7.2 1.3.3 1.1 1.5 1.6 2.2z" style="fill:#975a37"/><path class="st190" d="M219.6 120.9c-.4-.6-.8-1.2-1.1-1.8 0-.2-.1-.5-.1-.7-.7-6.1 4.5-9.4 6.5-14.2 1.3-.9 2.6-1.5 4.1-.8.2.2.4.3.5.5-.1 2.2.6 4.5-2.4 5.7-1.5.6-1.6 2.7-1.6 4.4-3.1.3-4.3 1.6-3.1 4.9 1 2.7-1 2.5-2.8 2z"/><path class="st191" d="M215.7 129v3c-2.3 1.7-2.6-.6-2.8-1.7-.7-3-.9-6.1-1.4-9.2.4-.7.7-1.4 1.1-2.1 1.3 3.2 2.3 6.6 3.1 10z"/><path class="st192" d="M238.6 137.9c-1.3-1.8-3.1-3-5.1-3.8-1.5-.7-2-1.5-1.8-3 2.3-3 3.8-5.7 1.8-9.9-1.7-3.5 2.8-2.4 4.3-3.6 1.1.2 1.5 1 1.8 1.9.5 2.3-.2 4.7.3 7-.3 1.2.1 2.5-.1 3.7-1.8 2.6.5 4.1 1.6 5.8-.4 1.3-1.4 1.9-2.8 1.9z"/><path d="M239.5 127c-2.2-2.1-.5-4.8-.9-7.1.4-.3.8-.4 1.3-.3 2.4 1.2 3.9 3.2 5.5 5.2.9 1.2 1.6 2.5 3.4 1.9.3.4.6.7 1 1.1-.2.9 1.6 3.2-.9 2.5-4.2-1.2-4 .6-3.2 3.5.3.9.8 2-1 1.9-.7-1.3-1.4-2.5-2.1-3.8-.9-1.7-3.2-2.5-3.1-4.9z" style="fill:#987357"/><path class="st188" d="M241.5 136c-5.3-2.8-5.5-3.6-1.9-6.1 1.8-.2 1.7.7 1.1 1.9.5 1.4 1.2 2.7.8 4.2z"/><path d="M240.6 131.9c-.4-.6-.7-1.3-1.1-1.9-.1-1-3.6-1.9-.1-3 .4 2 4 2.1 3.1 5-.6-.1-1.2-.1-1.9-.1z" style="fill:#e1b69b"/><path d="M156.6 172c-1.7-2.2-1.7-4.6-1-7.1 1.1-2.1.4-4.5.6-6.7.3-3.8 1.9-5.8 6-4.9 1.2.9 2.2 2.2 3.7 2.7 1.1 1.7 1.1 3.3-.3 4.8-2.5.1-6.2-1.8-6.7 2.2-.4 3.4-3.4 8 2.3 10.3 1 .4 2.4 1.5 1.9 2.6-2.1 5.5-1 12.6-7.6 15.9-2 1.1-2.9 0-3.4-1.7-.1-1.4.5-2.5 1.3-3.6 3.5-4.3 4.5-9.2 3.2-14.5z" style="fill:#f3b09f"/><path d="M165.7 160.9c-.2-1.7.5-3.6-.9-5.1-1.5-2.8-3.7-5.5-1.2-8.9.1-2.1.5-3.7 3.1-2 0 1.2.7 2.2 1.5 3 3.7 3.6 3.3 7.8 1.9 12.1-.4 1.2.3 3.3-1.9 3.5-1.8.2-1.3-2-2.5-2.6z" style="fill:#fad6cd"/><path d="M152.7 189.9c.6 1.3 1.5 2 2.9 2-2.2 2.8-4.5 5.5-7.8 7.1-.1-.4-.2-.7-.3-1.1.3-2.2 2.7-3.6 2.1-6.1.6-.7 1.3-1.4 1.9-2.1.4-.3.8-.2 1.2.2z" style="fill:#eaa188"/><path d="M240.8 97.9c2.8.8 1.7 3.1 1.9 4.9.2 1.6-.8 3.8 2 4.2-.3 1.3-.4 2.6-.8 3.8-1.5 4.4-1.1 8.4 1.9 12.1-4.5 1.3-4.8-2.9-6.6-5-2.3-2.5-4-5 .5-7 1.8.5 1.9.2 1.1-3.6-.1-3.3-.1-6.4 0-9.4z" style="fill:#977459"/><path class="st192" d="M239.6 117c1.7 2.3 2.4 5.6 6.2 5.8.2.2.5.3.8.3 0 1.7 1.2 2.6 2.3 3.7-.5 2.7-1.8 2.3-3.2.7-2.1-2.4-4-5-6.1-7.4-.7-1.1-.7-2.1 0-3.1z"/><path class="st190" d="M237.8 117.9c-.2 2.6-1.4 3.4-4.6 1 4.2 6.3 3.4 10.3-1.4 12.3-.2-1.4-1.2-2.7-.2-4.1 1.5-1.7.4-3.4-.2-5-1-2.9-2.3-5.6-2-8.8.1-3.1 2.9-5.5 2.3-8.9-.5-2.7-1.4-.4-2.1-.3-.6-3.3-.5-6.6-.6-9.9 0-1.8 1.1-3.4 3.5-3.1.3 1.1.9 2.7 1.8.6.6-1.3 1.4-2.5 2.1-3.7.3-1.7-.1-3.6 1.4-5.5 1.2 2.9.8 5.2-.2 7.7-1.8 4.6-2.4 9.3-.1 14 .6.5.8 1.3.5 1.8-2.7 3.8-1.4 7.8-.2 11.9z"/><path d="M237.8 117.9c-4.5-4.6-2.9-9.2-.2-13.9 2.1 1.1.5 3.8 2.2 5.2.5.6.5 1.2 0 1.8-3.3 1.9-2 4-.1 6.1v3.1c-.3 0-.7-.1-1-.1-.4-.9-.7-1.5-.9-2.2z" style="fill:#d7af8f"/><path d="M239.7 110.9v-1.8c.3-.7.7-1.4 1-2.1 2.3 1.8 1.5 3.9.4 6.3-.4-.9-.9-1.6-1.4-2.4z" style="fill:#714f35"/><path d="M134.8 160.1c-1.4 1.3-2.7 2.5-4.1 3.8-2.2 1.3-3.7.9-4.1-1.8 1.3-1.9 4.5-2.4 4.1-5.6.1-1.2.6-2.3 1.4-3.3 1.8-1.7 3.3-3.9 6.3-2.7 1.8 4.3-2.4 6.3-3.6 9.6z" style="fill:#926143"/><path class="st202" d="M124.8 145c2.5-.4 3.6 1.7 5.1 3 .1.8-.3 1.2-.9 1.6-2.7 1-.7 3.4-1.5 5-.2.6-.6 1.2-1.2 1.6-.9.6-1.7.1-2.5-.1-1.1-.7-.9-1.8-1.2-2.8 1.4-.1 1.9-.7 1.1-2 .2-2.3-1.1-4.7 1.1-6.3z"/><path d="M123.7 155.9c.7-1.2 1.3 0 1.9.1 2.3.5 2.6 2.2 2.8 3.8.6-1.2.6-3.5 3.3-2.9.5 3.9-2 4.8-5.1 5.1-.9-2-1.9-4-2.9-6.1z" style="fill:#c28a68"/><path d="M124.8 145c-.5 2 .8 4.3-1.2 6.1-.9-.9-1.8-1.9-2.8-2.7-2.9-2.4-2.9-4.3.8-5.6.5 1.4 2.5.9 3.2 2.2z" style="fill:#6e4224"/><path d="M138.6 150.8c-2.6-.2-3.8 2.2-5.9 3.1-1.2-2.2-1.7-4.5-1.9-7-.3-2.6-.7-5.3-1-7.9 0-.7.1-1.5.5-2.1 1.5-3.2 3.5-3.1 5.5-.6 1.3 1.7 3 3 4.2 4.7 1.4 3.5 2.1 6.9-1.4 9.8z" style="fill:#56301c"/><path d="M138.6 141c-1.2-1.1-2.8-2-3.5-3.4-2-3.9-3.1-1.8-4.3.4-2.3-3.4.3-6.8-.1-10.2v-.7c.6-1.5 2-1.9 3.3-2.4 1.3-.1 2.4-1.5 3.9-.9.3.4.5.8.6 1.2-2.3 5.1-.2 9.8 1.6 14.5-.2.9-.7 1.3-1.5 1.5z" style="fill:#89583a"/><path d="M130.8 146.9c1.2 2.2 2.9 4.2 1.9 7-.3 1-.7 2.1-1 3.1l-3.5 3.5c-.9-1.6-1.8-3.1-2.6-4.5l1.2-1.2c.2 0 .4-.1.6-.2 2.5-1.1.9-3 .8-4.5.1-.5.3-.8.7-1 .3-.4.6-.7.9-1.1.4-.4.7-.8 1-1.1z" style="fill:#6e4123"/><path class="st208" d="m134.6 125.9-3.9 1.2c-5.1-2.2-1.7-4.7-.3-7.2 1.3-1.2 2.5-1.8 3.3.4.5 1.4.5 2.9 1.3 4.2.1.6 0 1.1-.4 1.4zM130.7 127.8c1.8 3.4-.6 6.8.1 10.2l-1 1c-1.3-2-5.8-3.5-.4-6.2 1.3-.7-2.5-4.1 1.3-5z"/><path d="M134.5 124.9c-2.1-.3-1.9-1.9-1.8-3.3.1-2-.9-2-2.4-1.6.1-1 .2-2 .2-3 2.8-2.1 3.6-.1 4.3 2.1 1.6 2 1.7 3.9-.3 5.8z" style="fill:#c38e6a"/><path class="st210" d="M212.7 91c-.1-2.3-.2-4.7-.2-7 2.7.7 5.4 1.5 5.2-3 1.5.8.2 2.9 1.9 4.1V80c2.7 4.8.4 9.4-.5 14-.3 1.7-2.9.8-4.5 1-1.5-.9-.7-2.9-1.9-4z"/><path d="M232.5 90.9c-1.4 1.1-3.1 1.9-2.4 4.3 1 3 0 5.9-.6 8.8-1.5-.2-2.7.3-4 1-2-2-1-4.3-.4-6.4.8-1.9.5-4.2 2.2-5.8 1.2-3.1 2.3-6.3 2.3-9.7 1.7.3-.5 4.2 2.8 3 .1 1.5.1 3.1.1 4.8z" style="fill:#95613f"/><path d="M227.5 92.7c-.6 1.7.7 3.8-.9 5.3-1 1.1-1.1 2.9-2.7 3.5-1.7.1-2.6 1.7-4.1 2.2-1.7 0-4.5 2.2-5-.4-.7-3.1 2-5.2 5-6.3 4.3-3.8 3.6-9.1 4-14 .9.3 1.9.7 2.8 1 .6 2.8-.9 5.9.9 8.7z" style="fill:#bb7f58"/><path class="st191" d="M219.6 97c-1.1 2.3-4 3.5-4.2 6.4 1.4.6 2.6-1.9 4-.3 1.5.8 1.8 2.6 1 3.3-3 2.3-3.1 6.8-6.8 8.5-5-1.3-2.5-5.3-2.7-7.9-2.7-1.8-3.5 5.8-6.4.7.4-3.1 2.5-5.3 4.1-7.8 2.3-2.2 2.3-5.6 4-8.1 0-.3.1-.5.2-.8 2.5.3 1.6 2.5 1.9 3.9.9 2.4 3.6.5 4.9 2.1z"/><path class="st213" d="M177.6 80.9c2.1 1.9 4.2 3.7 6.1 5.7 2.8 2.8 1.7 4.8-1.3 6.5-1.8 1.2-3.6.1-5.4-.2-4-1.3-8.2.2-12.2-1-.5-.3-.9-.6-1.2-1.2-.4-2.2-5.2-2.2-3-5.8 1.4-1.6 3.3-1.2 5.1-1.4 4.1-.7 8-1.6 11.9-2.6z"/><path d="M155.6 75.9c-.8.2-1.6.6-2.4.7-2.2.1-3.9 3.3-5.7 1.8-2-1.6-2.5-4.7-2.7-7.2-.1-2.4.3-5 1.2-7.2 1.1-2.7 3.3-2.4 5.2-.7 3.2 2.7 7.2 4.9 7.4 9.8.4 2.3-1.1 2.7-3 2.8z" style="fill:#fbd2ca"/><path d="M155.6 75.9c1-1 2-2 3.1-3 2.9-3.2 3.4-6.8 1.9-10.8 1.7.2 3.4.5 5.1.7.3 4.3-1.3 8.1-3.4 11.6-.9 1.5-2.2 3.1-.8 5 1.3 1.6 3.1 1.8 5 1.5 2.8-.4 5.6-.4 7.7-2.8.9-1.1 2.3-1.4 3.5-.2.6 1 .6 2 0 3-4.9 4.4-11.1 3.6-17 4-2.6-2.5-6.1-4.4-5.1-9z" style="fill:#e7a59c"/><path d="M163.7 90.7c.3.1.6.2.9.2.7.5.7 1.2.4 1.9-2.4 1.5-4.7-.1-7.4-.2 2.3 2.6 6.5.7 8.3 3.7-1.3 3 2.5-.5 2 1.5.1.8-.2 1.3-.7 1.8-.3.2-.5.5-.8.5-3.9.2-7.7.4-11.2 2.3-2.5-1.1-2.9-3.2-2.9-5.6 0-1.7.4-3.5-.4-5.3 0-1.1-.2-2.1-1.1-2.8 4.8-2.8 8.6 1.4 12.9 2z" style="fill:#d16064"/><path d="M152.6 55.7c2 .1 4-.1 5.8 1 1.3.8 3.8 1 3.5 2.8-.3 1.6-2.5 1.8-4.3 1.5-1.2-5.1-6.2-.2-8.4-3.2.6-1.6 2.3-1.4 3.4-2.1z" style="fill:#56413e"/><path d="M160.6 135.9c0 1 .1 2 .1 3-2.6 4.4-.8 9.6-2.7 14.1-1.6 2 .3 5.2-2.3 6.8-2.1-1.2-4.3-2.3-6.5-3.5-1.2 3.5.4 6.5.1 9.6-.2 2.2-.7 3.5-3.1 3.2-2-.2-3.5-.9-2.7-3.5 1.9-6.1.1-12.8 3-18.8-1.1-3.2 1.5-5.4 2.1-8.1.7-1.5 1.2-3.2 2.7-4.2.6-.3 1.2-.4 1.8-.4.9 0 2 .2 2.4-1 .4-1.3-.7-1.5-1.6-1.9-1.1-.5-1.6-1.5-1.8-2.7 0-.5.1-.9.3-1.3 1-2.9 1.6-5.9 3.4-8.4.8-.4 1.5-.4 2.3.1.7.5 1.1 1.2 1.3 2 1.7 4.9.7 10 1.2 15z" style="fill:#331d16"/><path d="M157.6 119.1c-.5-.1-1-.3-1.5-.4-2.2-3-4.3-5.9-5.5-9.5-.5-2.5-3.5-4.3-1.9-7.3 2.9-2.8 3-6.5 3.1-10.2 2 3.2.1 7.8 4 10.2 4 .1 7.9 1.8 12-1.6 2.2-1.8 6.5-.5 9.9.4.5 2.5-1.7 2.8-3.1 3.8-1 .6-2.1 1.3-3.2 1.3-8.3.7-12.6 5.4-13.8 13.3z" style="fill:#f6c1bc"/><path d="M139.6 140.1c-3.1-2.5-2.5-6.5-4.2-9.6-1.3-2.3 2.8-3.1 2.3-5.5.5-.6 1.2-.7 1.8-.2.5.5.7 1.2 1.2 1.6.7.5 1.1 1.9 2.4 1.1.4-.3.5-.9.4-1.4-.8-2-1.5.7-2.5.1-.6-.4-1-.8-1.4-1.3-.4-2.6-1.8-6.6.4-7.5 2.6-1.1 4.1 3.5 6.7 4.6 2.8 2.3 1.4 6.4 3.8 8.9 1.6 3.4-1.5 3.8-3.2 5-3.4.1-5.3 2-6.3 5.1-.9.3-1.4.1-1.4-.9z" style="fill:#6d432a"/><path class="st142" d="M146.7 121.9c-3-.1-3.9-3.4-6.6-4.5-.3 2.6 2 5.3-.4 7.5-.7 0-1.3 0-2 .1v-1.1c-2.2-1.6-2.3-3.6-1.1-5.8l-.9-4.2c5.7-.8 7.2 4.9 10.9 7 .1.4.1.7.1 1z"/><path d="M146.7 134.9c1.4-1.3 3.7-1.6 3.8-4.1.2-1.5.2-3.1 2.1-3.7 0 .3.1.5.2.8.6 2.5 1.1 5-1 7.1l-1.8 4.2c-.7 0-1.2-.3-1.7-.7-.8-1.1-3-1.6-1.6-3.6z" style="fill:#936246"/><path d="M148.7 101.9c.6 2.4 1.2 4.9 1.9 7.3-2.2-2.4-3.9-5.1-5.2-8.1.7-.4 1.5-.8 2.2-1.1.4.6.8 1.3 1.1 1.9z" style="fill:#d8b2a6"/><path d="M146.6 108c-.8.8-1.6 1.5-2.4 2.3.3-1.6-2.7-4.4 1.6-4.4.2.7.5 1.4.8 2.1z" style="fill:#ad8061"/><path d="M164.8 23.1c5 .3 9.8-1.6 14.8-1 1.5 1 3.2 2 4.9 2.1 2.8.1 3.9 2 5.1 4 4.8 4.3 8.5 9.5 12 14.9 1 7.2-.3 9.6-6.9 12.7-2 .4-4-.2-5.9-.4-7.2-.9-12.7 1.3-16.1 7.9-.8 1-1.7 2-3 2.5-1.9.9-3.2.2-3.5-1.9-.1-1.1-.2-2.4 0-3.4 1-3.6-.4-5.9-3.6-7.5-2.3-1.1-4.6-2.1-7-3.2-1.5-2.4-.2-4.1 1.5-5.5 1.7-1.4 2.9-3.1 2.4-5.1-1.5-5.4 1.1-9.4 4.1-13.3.7-.8.8-1.9 1.2-2.8z" style="fill:#fcded5"/><path d="M162.6 53c4.1.1 7.4.6 4.3 5.9-.2.3-.2.6-.2 1 .1 1.8-.9 4 .9 5.1 1.8 1.2 2.5-1.7 4-2 1.2.6 1 2.4 2.3 3 1.3-.8 1.1-5 4.2-2.1 1.8 3.1 4.4 4.4 8 3.3 2.1.1 4.2.8 4.1 3.3 0 2.7-2.5 2.7-4.4 2.9-3.6.2-7.1.3-10.8.5.3 2 3.1 2 2.6 4.1v.1c-1 0-2-.1-2.7.9-2.7 3.3-9.6 5-13 3.2-3.2-1.7-4.7-4.1-1.7-7.1 3.4-3.4 2.7-8.5 5.4-12.1 1.8-4.2-2.1-6.7-3-10z" style="fill:#f9cbc3"/><path class="st226" d="M194.7 55c4.3-2.9 7.3-6.5 7-12.1h1c-.4 7.1 2.5 14 1.7 21.2-.1 1.3-.2 2.5-.7 3.7-3.4.2-2.8-2.9-4.4-5.7.5 4.3-1.4 6-4.4 5.9-2.5 0-5.9 1.5-6.6-2.8.4-1.1 1.7-.9 2.4-1.7-1.6-2.4-5.6-1.4-6.5-4.7 2.2-4.5 4-5 9.6-2.9.4.1.7.7 1.3.3-.5-.2-.6-.6-.4-1.2z"/><path class="st127" d="M189.6 28.1c-2.4-3.6-8.1-1.7-10-6 3.3 1 7.5-.7 10 3v3z"/><path class="st210" d="M212.6 91.8c.2 3.4-.9 6.3-4 8.1 1-2.8.9-6.2 4-8.1z"/><path class="st213" d="M157.6 119.1c-1.2-6.3 2.2-13.1 8.4-13.4 4.2-.2 8.3-1.8 11.7-4.7.2-1.8 1.5-2.8 2.8-3.8 1.4-.6 2.5-2.3 4.3-1.2 1.5-2.8 4.7-3.3 7.1-4.8 1.3-.8 4.2-1.1 4.7 1.1.6 3 .1 6.8-2.8 8.2-4.4 2.2-6.5 5.9-8.8 9.7-2 3.4-4.7 4.9-8.6 5.9-5.3 1.4-10.6 2.7-16 3.9-.6.5-1.3.5-1.9 0-.3-.2-.6-.5-.9-.9zM188.6 65.1c2.3 3.6 5.6 1.7 8.4 1.3 1.6-.2 1.3-1.9.4-3.2-.8-1.2-1.4-2.6.6-3.1 1.7-.4 3 .3 3.3 2.1.4 2-.5 4.5 2.1 5.7v5c-3.2 4.1-8 6.6-11.1 10.9-1.1 1.6-3.7 1.9-5.9 1.1-3.3-2-5.3-5.6-9-7.1-1.8-1.7-6.2-1.7-5.5-4.7.6-2.3 4.2-.7 6.5-.9 2.1-.1 4.3-.2 6.4-.4 1.5-.2 3.9.9 4.1-1.5.2-2-2-2.2-3.7-2.5-1.6.1-1.4-.9-1.3-1.9.5-1 1.4-1.4 2.4-1.7 1.2.1 1.9.2 2.3.9z"/><path d="M158.5 120.1h1.9c.7.3 1.4.6 2.2.9.2.7 1.7 1.2.8 1.9-2.9 2.2-2.1 4.6-.9 7.1.3 2.5 3 4.4 1.6 7.3-2.1-.8-1.9-2.9-3.2-4.6-.1 1.3-.3 2.3-.4 3.3-1.5-5.2-1.4-10.6-2-15.9z" style="fill:#b08171"/><path class="st226" d="M186.7 85c3.9-.7 6.7-2.4 8.6-6.4 1.4-3.1 6.1-2.9 8.4-5.6-.7 2.4-8.9 11.8-11 12.5-2.1.6-4.2 1.1-6-.5z"/><path d="m184.8 96-3.9 2.1c-.6.3-1.3.5-2 .2-.4-.3-.5-.7-.5-1.2.2-.8 1.1-1.6-.4-2.2-1.1-.4-1.8-1.1-1.7-2.5.3-.7.8-1.2 1.6-.7 1.5.4 3.1.8 4.6 1.3.8 1 2.5 1.2 2.3 3z" style="fill:#cc7874"/><path class="st133" d="M184.6 117.8c-.3.9-1.1 1-1.9 1.1-1.4.1-2.8-.3-4-1 1.9-2.5 3.9-1.6 5.9-.1z"/><path d="M150.5 184.6c-2.4-4.2 1.4-8.7-.4-12.9-.1-.3.7-1.3 1.1-1.4 2-.2 2.7 1.4 3.5 2.8 1.1 4.4-.2 8.2-2.9 11.7-.5.3-.9.2-1.3-.2z" style="fill:#844431"/><path d="m139.6 140.1 1 1c2.1 1.1 2.3 3.1 2.1 5.1 0 .2 0 .4-.1.7-1.5 5-3.5 9.8-7.8 13.2.3-3.5 3.2-5.9 3.8-9.3 1.2-3.3 2.2-6.5 0-9.8.3-.3.7-.6 1-.9z" style="fill:#b17f63"/><path d="M155.7 159.9c1.3-2.5 1.1-5.2 1.1-7.9 2.2-1.6 1.4-5.5 4.7-6.3 1.4 2.6 2.7 5.2 1 8.2-2.9.1-5 .8-5.1 4.6-.1 2 0 4.6-1.7 6.3v-4.9z" style="fill:#e2a595"/><path d="M152.7 189.9c-.4 0-.8-.1-1.2-.1-1.7-1.4-2.6-3-1-5.1l.4.4c4-.3 3.5-3.6 3.9-6 .3-1.7-.4-3.6 1-5.2.8-.4.8-1.2.9-1.9 4.1 7.2.4 12.6-4 17.9z" style="fill:#8e4836"/><path d="M155.8 173.9c.1 4.3 1.3 8.9-2.4 12.5-1.9 1.9-2.7 1.3-2.4-1.3 2.1-3.7 2.7-7.9 3.9-11.9.2.2.5.4.9.7z" style="fill:#e49a88"/><path d="m148.6 137.8 1.4 1.4c-.4 2.8-2.4 5-3.3 7.6-1.4-1.7-2.7-1-4 .1-.4-4.5 2.3-7 5.9-9.1z" style="fill:#af8267"/><path d="M136.6 118.1c.4 1.9.7 3.8 1.1 5.8-1 .8-1.5 2.2-3.1 2 0-.4-.1-.7-.1-1.1.1-2 .3-3.9.4-5.9.6-.2 1.1-.5 1.7-.8z" style="fill:#5a3119"/><path d="M160.8 146c-1.2 2.1-1.2 5-4.1 6 .6-2.5 2.2-4.7.4-7.8-.9-1.5 1.6-4 3.6-5.3 1.3 1.1.8 2.6 1 4 0 1.1 0 2.3-.9 3.1z" style="fill:#6f4c40"/><path d="M160.8 146c-.1-1.2-.2-2.3.9-3.1.6 1.4 1.2 2.7 1.9 4.1.4 3 .8 5.9 1.2 8.9-.3.6-.3 1.9-1.3 1.4-1.4-.6-.6-2.2-1-3.3.4-2.9 0-5.6-1.7-8z" style="fill:#bd8374"/><path class="st190" d="M213.6 114.9c2-2.8 1.8-7 5.9-8.5.3-.1 0-2.1-.1-3.2 1.5-.7 1.8-3.7 4.4-2.2 2.1 3.3-.9 5.9-2.2 7.9-2 3.2-3.1 6.2-2.9 9.9l-.2.4c-5.4 2-1.9 6.6-2.8 9.8-1.7-3.1-3.6-6.2-3-10 3.1-.7 1.5-2.5.9-4.1z"/><path d="M229.4 113.1c1.4 3.5 2.7 7.1 4.2 10.6 1 2.2.8 3.5-2 3.3-3.6-4-4.6-10.3-2.2-13.9z" style="fill:#7c4b2b"/><path d="M218.7 118.8c-2-4.2 0-7.5 2.2-11 1.3-2 2.7-4.2 2.8-6.8.9-1 1.8-2 2.8-3-.4 2.3-1.4 4.5-.9 7-2 4.7-5.8 8.5-6.9 13.8z" style="fill:#cf9b79"/><path d="M129 149c-.2.2-.3.5-.3.8-.6 1.2.7 2.1.7 3.2-.1 1.6-.3 3.1-2.5 1.7-.4-1.4-1-2.8-1-4.1 0-1.8.6-3.8 3.1-1.6z" style="fill:#d9a17b"/><path class="st202" d="M126.8 154.8c4.1-.3-.1-3.8 1.8-4.9 1.7 1.3 2.4 3.1 1.3 5-.7 1.1-2.1 1.4-3.1-.1z"/><path d="M177.6 91.7v.7c-4.4 2.3-8.8 2.9-13.1.3.3-.9.3-.8.5-1.8 4.3.2 8.5-.7 12.6.8z" style="fill:#e7878f"/><path d="M164.6 92.7c4 .1 8 .2 12 .2 1.1 1.7 3.5.6 4.7 2.5-.9.6-1.8 1.1-2.7 1.7-1 .4-2 .3-3 .5-1.4-.1-2.8-.3-4.3.1-1.9 0-3.7-.2-5.4-.9-2.8-1.5-6.2-.4-9-2-1.2-.6-2.4-.9-2-2.7.5-2.2 1.9-1.2 3.1-1 2.2.5 4.4 1.1 6.6 1.6z" style="fill:#f5e7db"/><path d="M178.8 98c.7 0 1.4.1 2 .1-1.1 1-2.1 2-3.2 2.9-2.7.3-5.4.8-8.2.2-2.8-.5-4.2 3.9-7.9 2.8-2-.6-4.2-.4-5.8-2.1 2.4-5.6 7.3-1.6 10.9-3 2 .4 3.8-.9 5.8-.7 2.2.7 4.3-.4 6.4-.2z" style="fill:#ea6276"/><path d="M172.9 99c-2.1.6-4.1 1.9-6.2 0 .3-.3.7-.6 1-.9.9-1.7 2.9.2 3.9-1.2 1.5-2.3 2.7-.1 4 .3.1 2-.9 2.5-2.7 1.8z" style="fill:#ea777d"/><path d="M171.6 96.9c-1 1.4-2.6.9-3.9 1.2-1-.3-2.2.4-3-.6.4-.2.8-.5 1.2-.7 1.9-.6 3.8-.3 5.7.1z" style="fill:#ce4945"/><path d="M151.8 135c.3-2.4.7-4.7 1-7.1.4.7.9 2 1.2 2 3.7-.7 4 .8 3.3 3.9-1.1 4.8-3.8.2-5.5 1.2z" style="fill:#59392a"/><path d="M148.6 137.8c-1.1 3.6-5.2 5.3-5.9 9.1-.7-1.9-1.4-3.9-2.1-5.8-.5-4.6 1.2-7 6.2-6.2-.7 1.8 2.5 1.1 1.8 2.9z" style="fill:#563220"/><path d="M139.7 124.9c1.9 1.2 2.8-2 4.2-1.2.7.4.7 2.2 2 2.7-1 1.4-1.8 3-3.1 4-.7.5-1.7-.8-2-1.7-.5-1.2-.8-2.5-1.1-3.8z" style="fill:#a17453"/><path d="M172.7 39.3c-1.2-8.1 3.8-9.7 9.7-6.8 2.9 1.4 7.4 2.1 6.9 6.1-.6 4.9.1 10.8-5.6 13.7-3.8 1.9-6.8.6-8.8-2.9-1.8-3.2-2.7-6.8-2.2-10.1z" style="fill:#fdebe5"/><path class="st250" d="M194.7 55c1.1 1.6 5.2.5 4.3 2.8-1.1 2.8-3.4-.1-5.2-.7-3.5-1.3-7-2.6-9.2 2.1-.6.5-1.2.6-1.9.6-4-1.5-3.6 1.9-4.5 4-.2.1-.4.2-.6.2-.7-.3-1.8-1-1.6.3.3 2 .2 4-2 4-2.5.1-2-2.4-2.1-4.1v-1.5c3.9-8.6 10.7-11 22.8-7.7z"/><path class="st250" d="M184.7 66c0 .8.2 1.5.9 2-4.4 2.3-6.7.2-8.1-3.9l.2-.2c2.7-.5 5 .2 7 2.1z"/><path d="M182.8 59.1c.6.1 1.2.1 1.8.2 2.4 1 4.8 1.8 7.1 2.9 1.1.6 2.3 2 1.8 3.1-.8 1.5-2.2.4-3.3-.3-.3-.2-.9.1-1.4.1-.7 0-1.4.1-2 .1-3.2.7-4.3-1.9-5.6-3.8-1.5-1.9.5-1.9 1.6-2.3z" style="fill:#5c4441"/><path d="M182.8 59.1c-.7 1.5 1.3 4.6 3.8 6.1-.7.3-1.3.5-1.9.8-2.6.3-4.8-.8-7-2.1 1.7-1.8-3.5-2.5-.8-4.5 1.9-1.4 3.8-1.8 5.9-.3z" style="fill:#cc9183"/><path d="M172.9 99c1.2-.2 2.2-.7 2.7-1.9 1-1.1 2-.8 3 0 0 .3.1.6.2.8-1.7 1.6-3.5 3-5.9 1.1z" style="fill:#c65157"/></svg>