<svg xmlns="http://www.w3.org/2000/svg" xml:space="preserve" id="AEM_Logo_-_Dark" x="0" y="0" style="enable-background:new 0 0 986 986" version="1.1" viewBox="0 0 986 986">
  <g id="Mark_1_">
    <path id="Circle_Outer" d="M493 986c-66.5 0-131.1-13-191.9-38.8-58.7-24.8-111.4-60.4-156.7-105.6-45.3-45.3-80.8-98-105.6-156.7C13 624.1 0 559.5 0 493s13-131.1 38.8-191.9c24.8-58.7 60.4-111.4 105.6-156.7s98-80.8 156.7-105.6C361.9 13 426.4 0 493 0s131.1 13 191.9 38.8c58.7 24.8 111.4 60.4 156.7 105.6 45.3 45.3 80.8 98 105.6 156.7C972.9 361.9 986 426.4 986 493s-13 131.1-38.8 191.9c-24.8 58.7-60.4 111.4-105.6 156.7-45.3 45.3-98 80.8-156.7 105.6C624.1 972.9 559.5 986 493 986zm0-935c-59.7 0-117.6 11.7-172 34.7-52.6 22.3-99.9 54.1-140.5 94.7-40.6 40.6-72.5 87.9-94.7 140.5C62.7 375.4 51 433.3 51 493s11.7 117.6 34.7 172c22.3 52.6 54.1 99.9 94.7 140.5 40.6 40.6 87.9 72.5 140.5 94.7 54.5 23 112.4 34.7 172 34.7s117.6-11.7 172-34.7c52.6-22.3 99.9-54.1 140.5-94.7 40.6-40.6 72.5-87.9 94.7-140.5 23-54.5 34.7-112.4 34.7-172s-11.7-117.6-34.7-172c-22.3-52.6-54.1-99.9-94.7-140.5-40.5-40.6-87.8-72.5-140.4-94.8C610.5 62.7 552.7 51 493 51z"/>
    <path id="Shape_Stroke_Thin" d="M493 800.5c-59.3 0-107.5-48.2-107.5-107.5 0-51-41.5-92.5-92.5-92.5-59.3 0-107.5-48.2-107.5-107.5S233.7 385.5 293 385.5c51 0 92.5-41.5 92.5-92.5 0-59.3 48.2-107.5 107.5-107.5S600.5 233.7 600.5 293c0 51 41.5 92.5 92.5 92.5 59.3 0 107.5 48.2 107.5 107.5S752.3 600.5 693 600.5c-51 0-92.5 41.5-92.5 92.5 0 59.3-48.2 107.5-107.5 107.5zm0-600c-51 0-92.5 41.5-92.5 92.5 0 59.3-48.2 107.5-107.5 107.5-51 0-92.5 41.5-92.5 92.5s41.5 92.5 92.5 92.5c59.3 0 107.5 48.2 107.5 107.5 0 51 41.5 92.5 92.5 92.5s92.5-41.5 92.5-92.5c0-59.3 48.2-107.5 107.5-107.5 51 0 92.5-41.5 92.5-92.5S744 400.5 693 400.5c-59.3 0-107.5-48.2-107.5-107.5 0-51-41.5-92.5-92.5-92.5z"/>
    <path id="Shape_Stroke_Thick" d="M634.4 749.4c-30.7 0-59.6-12-81.3-33.7-33.1-33.1-87.1-33.1-120.2 0-21.7 21.7-50.6 33.7-81.3 33.7s-59.6-12-81.3-33.7c-21.7-21.7-33.7-50.6-33.7-81.3s12-59.6 33.7-81.3c16.1-16.1 24.9-37.4 24.9-60.1 0-22.7-8.8-44-24.9-60.1-44.8-44.8-44.8-117.8 0-162.6 21.7-21.7 50.6-33.7 81.3-33.7s59.6 12 81.3 33.7c33.1 33.1 87.1 33.1 120.2 0 44.8-44.8 117.8-44.8 162.6 0 21.7 21.7 33.7 50.6 33.7 81.3s-12 59.6-33.7 81.3c-16.1 16.1-24.9 37.4-24.9 60.1 0 22.7 8.8 44 24.9 60.1 44.8 44.8 44.8 117.8 0 162.6-21.7 21.7-50.6 33.7-81.3 33.7zM493 660.9c29.4 0 58.9 11.2 81.3 33.6 16.1 16.1 37.4 24.9 60.1 24.9s44-8.8 60.1-24.9c33.1-33.1 33.1-87.1 0-120.2-21.7-21.7-33.7-50.6-33.7-81.3 0-30.7 12-59.6 33.7-81.3 16.1-16.1 24.9-37.4 24.9-60.1 0-22.7-8.8-44-24.9-60.1-33.1-33.1-87.1-33.1-120.2 0-44.8 44.8-117.8 44.8-162.6 0-16.1-16.1-37.4-24.9-60.1-24.9-22.7 0-44 8.8-60.1 24.9-33.1 33.1-33.1 87.1 0 120.2 21.7 21.7 33.7 50.6 33.7 81.3 0 30.7-12 59.6-33.7 81.3-16.1 16.1-24.9 37.4-24.9 60.1s8.8 44 24.9 60.1c16.1 16.1 37.4 24.9 60.1 24.9 22.7 0 44-8.8 60.1-24.9 22.4-22.4 51.8-33.6 81.3-33.6z"/>
  </g>
</svg>