<svg xmlns="http://www.w3.org/2000/svg" xml:space="preserve" style="enable-background:new 0 0 22.6 25.8" viewBox="0 0 22.6 25.8">
	<path d="M16.9 4.8c-1.3-.8-2.6-1.1-3.8-2-.8-.5-1.8-1.8-2.7-2.8-.2 1.7-.7 2.4-1.3 2.9-1.3 1-2.1 1.3-3.2 1.9C5 5.3 0 8.3 0 14.7s5.4 11.2 11.4 11.2 11.2-4.4 11.2-11-4.9-9.6-5.7-10.1zm.2 18.7c-.1.1-1.3.9-2.6 1s-3.2.2-4.3-.8c-.2-.2-.1-.4 0-.5.1-.1.2-.2.4-.2h.2c.5.4 1.2.7 2.8.7s2.7-.4 3.2-.8c.2-.2.3 0 .3.1s.1.3 0 .5zm-4.4-2.3c.3-.2.7-.6 1.1-.8s.6-.1 1-.1.8 0 1.1.2c.3.2.5.6.6.9s0 .4-.2.5c-.2.1-.2 0-.4-.3s-.2-.6-1.1-.6-1.1.3-1.6.6c-.4.3-.6.5-.7.3s-.1-.4.2-.7zm6.6.2c-.9-.1-2.7-2.9-3.8-2.9-1.4 0-4.6 3-7 3-1.5 0-1.9-.2-2.4-.5-.7-.5-1.1-1.3-1.1-2.4 0-1.9 1.8-3.8 4.1-3.8 2.9 0 4.9 2.9 6.4 2.9 1.2 0 3.6-2.5 4.8-2.5 1.2 0 1.6 1.3 1.6 2.1s-.2 2.2-.8 3-1.1 1.2-1.8 1.1z"/>
</svg>