<svg xmlns="http://www.w3.org/2000/svg" xml:space="preserve" style="enable-background:new 0 0 2157 2500" viewBox="0 0 2157 2500">
	<path d="M2060.7 2339.7c-43.2-22.3-108.8-33.5-193.9-94.9-22.3-15.3-53-29.3-57.2-41.9-4.2-12.6-4.2-85.1-2.8-147.9 1-45.7 12.4-101 21.2-144.4 1-2.4 2-5.7 1.8-8.7 2.6-12.7 4.8-24.3 6.4-33.9 6.5-40.5-7.7-39.4-26.7-35.7 3.3-14.9 6.8-29.6 10-45.2 34.9-64.2 19.5-124.2 19.5-124.2 83.2-106 40.7-332 22.4-411.3 65.1 30.8 97.6 19.2 97.6 19.2 11-6.1 20.8-14.8 29.5-24.7 33.1-36.8 50-91.1 50-91.1.1-.9.1-1.9.1-2.8 79.4-79.5 116.8-196.7 26.4-273.4 20.9-60-7-110.2-22.3-128.4 18.1-44.6 22.3-117.2-37.7-175.8-15.3-14.6-32.4-24.1-49.4-30.2-20.4-30.1-24.8-42.3-58-35.4-15.4-16.7-18.1-29.3-50.2-18.1 0 0-9.8-23.7-27.9-29.3-4.9-2.1-10.4-2.4-15.5-1.9-13.2-7.9-25.5-11.8-36.7-13.2-8.2-1.1-16.6-.9-24.8.9-13.3-5.8-12.4-9.3-13.6-43.1-.7-20.5-1.8-50.3-3.2-76.8 3-34.2 10.5-98.7 12.9-131.1 2.8-37.7 4.2-96.3-12.6-121.4-39.1-55.8-223.2-50.2-258.1-2.8-3.5 5.3-6.8 19.5-9.3 38.1-.9 2.5-1.4 6.5-1.5 12.3-4.3 39.2-5.5 91.4-.3 124 0 0 3.2 35.5 9.1 62.9-.6 5.4-1.2 11.2-2 17.1 0 .3-.1.6-.1.9-2.5 20.4-5.8 43.1-9.8 61.4-1 5.7-20.9 9.5-43.3 15.4-4.5-1.5-9.1-2.9-13.9-4.2-23.7-7-39.1 12.6-62.8 26.5-7-4.2-37.7-18.1-54.4-8.4-16.7 9.8-27.9 19.5-44.6 26.5-8.4-4.2-30.7-4.2-48.8 2.8-12.8 3.9-30.5 11.4-49.1 28.2-235 58.8-488.7 166.1-509 176.9-103.2 53-272.1 143.7-348.8 206.5-131.1 108.8-209.3 235.8-240 329.3-39.1 115.8-27.9 185.6 9.8 140.9 30.2-37.2 165.8-147.8 251.4-203.1l-.3.8c3.7-2.7 8.2-5.7 13.3-9.1 11.9-7.3 22.5-13.3 31.3-17.4l23.7-12.6s19.2-12 51.4-32.7c61 56.1 81.4 145.5 95.1 267.1 22.3 187 173 273.5 348.8 276.3 182.8 2.8 248.3 40.5 316.7 132.6 15.5 20.3 32.4 31.3 47.7 37.4-6.5 12.2-12 25.6-16.3 40.8-7.6 17.2-12.7 38.6-15.9 61.9-1.6 2.2-2.6 4.8-3 7.7-7 54.4-5.6 182.8-7 251.1-1.4 68.4-2.8 78.1-8.4 87.9-5.6 11.2-11.2 18.1-18.1 47.4-7 30.7-19.5 39.1-32.1 64.2-20.9 39.1-16.7 82.3 4.2 101.8s78.1 48.8 156.3 39.1c78.1-9.8 89.3-15.4 76.7-90.7-1.4-11.2-19.5-61.4-13.9-80.9 8.4-20.9-9.8-57.2-5.6-58.6 4.2-1.4 9.8-29.3 9.8-43.2s-1.4-80.9 14-115.8c6.3-14.2 19.5-46.4 33-79.5 44.3-72.2 46.6-116.8 48.8-142.3 3.1-20.7 4.7-47.4 1.9-76.8 5.6-8.4 29.3-27.9 32.1-65.6 0 0 65.3-34.4 111.8-116.6 16.3 56.5 31.6 92.4 29.1 129.2-50.7 39.7-69.5 68.9-77.2 97.5-9.5-3.9-10.3-6.4-24.7-1.2-19 6.8-4.9 127.7 15.2 181.6l.2 4s.5.2 1.6.6c20.8 51.3 31.9 82 40.2 137.6 8.4 55.8-19.5 124.2-30.7 154.9 0 0-15.4 46.2 14.9 76.4l.4 7.3s3.9.5 10.2 1.2c38.9 23.7 172.1 16.9 232.5 16.9 61.4 0 153.5 22.3 212.1 11.2 3.5-.6 6.8-1.3 10.1-2l3.9.6 2.4-2.2c57.6-15.7 63.8-53.9 24-74.4zm-124.2-1263.8c-14.5 8.4-37.3 3.7-61.3 2.5-11.6-.6-23.2 6.5-32.5 14.7 1.3-13.8 2.5-28 3.2-37 .6-43.7 9.1-82.1 20.2-114.6 7.7 6.8 18.2 12.1 32.9 15.5-33.4 69.2 33.6 92.7 37.5 118.9zM1105 1612.6c-.1 0-.1-.1-.2-.1.1.1.1.1.2.1z" style="enable-background:new"/>
	</svg>