<svg xmlns="http://www.w3.org/2000/svg" xml:space="preserve" id="Layer_1" x="0" y="0" style="enable-background:new 0 0 94.1 90.7" version="1.1" viewBox="0 0 94.1 90.7">
	<path d="M6 21.3c-8.3 12-7.3 27.6-.9 40.3.2.3.3.6.5.9l.3.6c.1.1.1.2.2.3l.3.6c.2.3.4.7.6 1l.3.6c.2.4.4.7.7 1.1.1.2.2.3.3.5.3.5.7 1 1 1.5.1.1.1.2.2.2l.9 1.2c.1.1.2.3.4.4.3.4.6.7.9 1.1.1.1.2.3.3.4.4.5.8.9 1.2 1.4v.1c.4.4.8.9 1.2 1.3l.4.4 1 1 .4.4c.4.4.9.8 1.3 1.2.1.1.2.1.2.2.4.3.8.7 1.2 1 .2.1.3.3.5.4.3.3.7.5 1 .8.2.1.4.3.5.4.4.3.8.5 1.1.8.1.1.3.2.4.3l.1.1c.4.2.7.5 1.1.7.2.1.3.2.5.3.6.4 1.1.7 1.7 1.1.2.1.3.2.5.3.4.2.9.5 1.3.7.2.1.5.2.7.4.3.2.6.3.9.5.1 0 .1.1.2.1.1.1.3.1.4.2.5.2 1 .5 1.5.7.1 0 .2.1.3.1.6.2 1.1.5 1.7.7.1.1.3.1.4.2.5.2 1.1.4 1.6.6.1 0 .1 0 .2.1l1.8.6c.1 0 .3.1.4.1.6.2 1.2.4 1.9.5 40.3 7.4 52-24.2 52-24.2C82 78.2 64.6 81.6 48 77.8c-.6-.1-1.2-.3-1.8-.5-.2 0-.3-.1-.5-.1l-1.8-.6c-.1 0-.2-.1-.2-.1-.5-.2-1-.4-1.6-.6-.1-.1-.3-.1-.4-.2-.6-.2-1.1-.5-1.7-.7-.1 0-.2-.1-.3-.1-.5-.2-1-.4-1.4-.7-.1-.1-.3-.1-.4-.2-.4-.2-.7-.4-1.1-.6-.2-.1-.5-.3-.7-.4-.4-.2-.9-.5-1.3-.7-.1-.1-.3-.2-.4-.2-.6-.3-1.2-.7-1.7-1.1-.2-.1-.3-.2-.5-.3-.4-.3-.8-.5-1.2-.8-.1-.1-.3-.2-.4-.3-.4-.3-.8-.6-1.2-.8-.2-.1-.3-.3-.5-.4-.4-.3-.7-.5-1-.8-.2-.1-.3-.2-.5-.4-.4-.4-.9-.7-1.3-1.1L26 66c-.5-.4-.9-.8-1.4-1.2-.1-.1-.3-.2-.4-.4-.3-.3-.7-.6-1-1l-.4-.4c-.4-.4-.8-.8-1.2-1.3l-.1-.1c-.4-.5-.8-.9-1.2-1.4-.1-.1-.2-.3-.3-.4-.3-.4-.6-.7-.9-1.1-.1-.1-.2-.3-.3-.4-.3-.4-.7-.9-1-1.4C8.4 44.5 5.1 27.2 12.5 13"/>
	<path d="M31.9 11.2c-6 8.7-5.7 20.3-1 29.5.8 1.5 1.7 3 2.7 4.5.9 1.3 1.9 2.8 3.1 3.9.4.5.9.9 1.4 1.4l.4.4c.5.4.9.9 1.4 1.3h.1c.5.5 1.1.9 1.6 1.3.1.1.2.2.4.3.6.4 1.1.8 1.7 1.2.3.2.5.3.8.5.1.1.2.2.4.2.4.3.8.5 1.3.8.1 0 .1.1.2.1.4.2.7.4 1.1.6.1.1.3.1.4.2.3.1.5.3.8.4 0 0 .1 0 .1.1.5.3 1.1.5 1.6.8.1.1.2.1.4.1.4.2.9.4 1.3.5.2.1.4.1.6.2.4.1.8.3 1.2.4.2.1.4.1.5.2.6.2 1.2.4 1.8.5C87 65.8 94.1 41.8 94.1 41.8c-6.5 9.3-19 13.8-32.4 10.3-.6-.2-1.2-.3-1.8-.5-.2-.1-.4-.1-.5-.2-.4-.1-.8-.3-1.2-.4-.2-.1-.4-.1-.6-.2-.4-.2-.9-.3-1.3-.5-.1-.1-.2-.1-.4-.2-.5-.2-1.1-.5-1.6-.8-.3-.1-.5-.3-.8-.4-.2-.1-.3-.2-.5-.2-.3-.2-.7-.4-1-.6-.1 0-.2-.1-.2-.1-.4-.2-.8-.5-1.2-.8-.1-.1-.2-.2-.4-.3-.3-.2-.5-.4-.8-.5-.6-.4-1.1-.8-1.7-1.2-.1-.1-.3-.2-.4-.3-5.9-4.6-10.5-10.9-12.7-18.1-2.3-7.4-1.8-15.8 2.2-22.6"/>
	<path d="M53.6 3.7c-3.6 5.2-3.9 11.7-1.4 17.5 2.6 6.1 7.9 10.9 14.1 13.2.3.1.5.2.8.3.1 0 .2.1.3.1.4.1.7.2 1.1.3 17.2 3.3 21.8-8.8 23.1-10.6-4.1 5.9-10.9 7.3-19.4 5.2-.7-.2-1.4-.4-2-.6-.8-.3-1.6-.6-2.4-1-1.5-.7-2.9-1.6-4.2-2.6C56 19.8 51.4 8.9 56.3 0"/>
</svg>