<svg xmlns="http://www.w3.org/2000/svg" xml:space="preserve" id="Layer_1" x="0" y="0" style="enable-background:new 0 0 393.2 355.8" version="1.1" viewBox="0 0 393.2 355.8">
	<path d="m79.6 126.9 117 228.9L0 126.9h79.6zM313.6 126.9l-117 228.9 196.6-228.9h-79.6z"/>
	<path d="M79.6 126.9h233.9l-117 228.9L79.6 126.9z" style="opacity:.9"/>
	<path d="M196.6 0 85.8 11.7l-6.2 115.2L196.6 0zM196.6 0l110.8 11.7 6.2 115.2L196.6 0z" style="opacity:.8"/>
	<path d="M393.2 126.9 307.4 11.7l6.2 115.2h79.6zM0 126.9 85.8 11.7l-6.2 115.2H0zM196.6 0l-117 126.9h233.9L196.6 0z" style="opacity: .7"/>
</svg>