<svg xmlns="http://www.w3.org/2000/svg" xml:space="preserve" id="Layer_1" x="0" y="0" style="enable-background:new 0 0 600 600" version="1.1" viewBox="0 0 600 600">
	<path d="M0 208C0 109.9 0 60.9 30.5 30.5S109.9 0 208 0h184c98.1 0 147.1 0 177.5 30.5S600 109.9 600 208v184c0 98.1 0 147.1-30.5 177.5S490.1 600 392 600H208c-98.1 0-147.1 0-177.5-30.5S0 490.1 0 392V208zm414-26H212l-99.6 99.6c-1.3 1.3-.4 3.4 1.4 3.4H212v99c0 2.2 1.8 4 4 4h99v98.2c0 1.8 2.2 2.7 3.4 1.4L418 388V186c0-2.2-1.8-4-4-4z"/>
	<path d="M212 285h99c2.2 0 4 1.8 4 4v99h-99c-2.2 0-4-1.8-4-4v-99zM315 388h103l-99.6 99.6c-1.3 1.3-3.4.4-3.4-1.4V388zM212 285h-98.2c-1.8 0-2.7-2.2-1.4-3.4L212 182v103z" style="opacity: .5"/>
</svg>