<svg xmlns="http://www.w3.org/2000/svg" xml:space="preserve" style="enable-background:new 0 0 105.8 63.5" viewBox="0 0 105.8 63.5">
	<path d="M52.9 0C38.8 0 30 7.1 26.4 21.2c5.3-7.1 11.5-9.7 18.5-7.9 4 1 6.9 3.9 10.1 7.2 5.2 5.3 11.2 11.4 24.3 11.4 14.1 0 22.9-7.1 26.4-21.2-5.3 7.1-11.5 9.7-18.5 7.9-4-1-6.9-3.9-10.1-7.2C72 6.1 66 0 52.9 0zM26.4 31.7C12.3 31.7 3.5 38.8 0 52.9c5.3-7.1 11.5-9.7 18.5-7.9 4 1 6.9 3.9 10.1 7.2 5.2 5.3 11.2 11.4 24.3 11.4 14.1 0 22.9-7.1 26.4-21.2-5.3 7.1-11.5 9.7-18.5 7.9-4-1-6.9-3.9-10.1-7.2-5.1-5.3-11.1-11.4-24.3-11.4z"/>
</svg>