<svg xmlns="http://www.w3.org/2000/svg" xml:space="preserve" id="Layer_1" x="0" y="0" style="enable-background:new 0 0 100 100" version="1.1" viewBox="0 0 100 100">
	<defs>
		<filter id="Adobe_OpacityMaskFilter" width="100.1" height="99.5" x="-.1" y=".3" filterUnits="userSpaceOnUse"><feColorMatrix values="1 0 0 0 0 0 1 0 0 0 0 0 1 0 0 0 0 0 1 0"/>
		</filter>
	</defs>
	<mask id="mask0_00000063618548088805930100000012914748374286151343_" width="100.1" height="99.5" x="-.1" y=".3" maskUnits="userSpaceOnUse">
	<path d="M70.9 99.3c1.6.6 3.4.6 5-.2l20.6-9.9c2.2-1 3.5-3.2 3.5-5.6V16.4c0-2.4-1.4-4.6-3.5-5.6L75.9.9c-2.1-1-4.5-.8-6.4.6-.3.2-.5.4-.7.6L29.4 38 12.2 25c-1.6-1.2-3.8-1.1-5.3.2l-5.5 5c-1.8 1.7-1.8 4.5 0 6.2L16.2 50 1.4 63.6c-1.8 1.7-1.8 4.5 0 6.2l5.5 5c1.5 1.4 3.7 1.4 5.3.2l17.2-13 39.4 36c.6.5 1.3 1 2.1 1.3zm4.1-72L45.1 50 75 72.7V27.3z" style="fill-rule:evenodd;clip-rule:evenodd;filter:url(#Adobe_OpacityMaskFilter)"/>
	</mask>
	<g style="mask:url(#mask0_00000063618548088805930100000012914748374286151343_)">
		<path d="M96.5 10.8 75.9.9c-2.4-1.1-5.2-.7-7.1 1.2L1.3 63.6c-1.8 1.7-1.8 4.5 0 6.2l5.5 5c1.5 1.4 3.7 1.4 5.3.2l81.2-61.6c2.7-2.1 6.6-.1 6.6 3.3v-.2c.1-2.5-1.3-4.7-3.4-5.7z" style="opacity:.8;"/>
		<path d="m96.5 89.2-20.6 9.9c-2.4 1.1-5.2.7-7.1-1.2L1.3 36.4c-1.8-1.7-1.8-4.5 0-6.2l5.5-5c1.5-1.4 3.7-1.4 5.3-.2l81.2 61.6c2.7 2.1 6.6.1 6.6-3.3v.2c.1 2.5-1.3 4.7-3.4 5.7z" style="opacity:.9"/>
		<path d="M75.9 99.1c-2.4 1.1-5.2.7-7.1-1.2 2.3 2.3 6.2.7 6.2-2.6V4.7c0-3.3-3.9-4.9-6.2-2.6C70.7.2 73.5-.3 75.9.9l20.6 9.9c2.2 1 3.5 3.2 3.5 5.6v67.2c0 2.4-1.4 4.6-3.5 5.6l-20.6 9.9z"/>
	</g>
</svg>