<svg xmlns="http://www.w3.org/2000/svg" xml:space="preserve" id="Layer_1" x="0" y="0" style="enable-background:new 0 0 60 48" version="1.1" viewBox="0 0 60 48">
	<style>
		.st5 {
			opacity:.8
		}
		.st7 {
			fill-rule:evenodd;
			clip-rule:evenodd;
		}
	</style>
	<path d="m9.2 33.1-3.1 1.1-.2 9.3 10.9-4c-3.7-1.2-6.4-3.4-7.6-6.4" style="opacity:.7;fill-rule:evenodd;clip-rule:evenodd;fill:#fff"/>
	<path d="M10.9 23.2 0 27.2l6.1 7 3.1-1.1c-1.1-3.1-.4-6.5 1.7-9.9" style="opacity:.8;fill-rule:evenodd;clip-rule:evenodd;fill:#fff"/>
	<path d="m59.5 14.7-25.9 9.5 25.9-9.5z" style="fill:none"/>
	<path d="M30.9 14.5c6.8-2.5 13.4-3.8 18.5-3.8 5.3 0 9 1.3 10 4-2.8-7.8-16.4-10.1-30.3-5C15.2 14.8 6.3 25.2 9.1 33c-1.8-5.3 8-13.5 21.8-18.5z" style="opacity:.6;"/>
	<path d="M33.6 24.2h-.1l26-9.5z"/>
	<path d="M59.5 14.7c1.9 5.4-7.8 13.6-21.7 18.6-6.8 2.5-13.4 3.8-18.5 3.8-5.3 0-9-1.3-10-4 2.9 7.9 16.4 10.1 30.3 5C53.4 33 62.3 22.6 59.5 14.7zM9.2 33.1zM59.5 14.7z"/>
	<path d="M19.2 37.1c5.1 0 11.7-1.3 18.5-3.8C51.6 28.2 61.3 20 59.4 14.7l-26 9.5-24.2 8.9c1 2.7 4.8 4 10 4z"/>
	<path d="M59.5 14.7zM9.2 33.1z"/>
	<path d="M49.5 10.7c-5.1 0-11.7 1.3-18.5 3.8-13.9 5-23.7 13.2-21.8 18.6l24.3-8.9 25.9-9.5c-.9-2.7-4.7-4-9.9-4z"/>
	<path d="m9.2 33.1 24.3-8.9h.1zM59.5 14.7zM9.2 33.1l24.3-8.9-24.3 8.9z"/>
	<g style="opacity:.9">
		<path d="M46.7 44.1c-1.5 0-3.7-1.3-6.5-4-3.3-3.1-7.2-7.7-10.8-12.8-3.6-5.2-6.6-10.3-8.3-14.5-1.9-4.6-2.2-7.4-.8-8.4.3-.3.7-.4 1.1-.4 1.1 0 3.3.8 7.4 4.8l.1.1V9c0 .3-.1.6-.1.9v.6l-.4-.4c-4.4-4.4-6.4-4.9-7-4.9-.2 0-.3 0-.4.1-.6.4-.6 2.5 1.2 6.9 1.7 4.1 4.7 9.2 8.2 14.3 3.6 5.1 7.3 9.6 10.6 12.7 3.5 3.3 5.1 3.7 5.7 3.7.2 0 .3 0 .4-.1.6-.4.6-2.7-1.5-7.5l-.1-.2.2-.1.6-.3.3-.1.1.3c1.5 3.4 2.9 7.7 1 9-.2.1-.6.2-1 .2z" class="st7"/>
		<path d="M39.8 37.9v.3c-.4 4.3-1.3 9.6-3.7 9.8H36c-1.6 0-3.2-2.3-4.6-7-1.4-4.4-2.4-10.2-2.9-16.5-.5-6.3-.5-12.2 0-16.8C29.1 2.8 30.3.2 32 0h.2c1.2 0 3 1.3 4.8 7.6l-1.2.2c-.6-2.1-1.3-3.8-1.9-5-.6-1.1-1.2-1.7-1.7-1.7-.7.1-1.8 1.8-2.4 6.6-.6 4.5-.6 10.3 0 16.5.5 6.2 1.6 12 2.9 16.3.6 1.9 1.2 3.5 1.9 4.6.6 1 1.1 1.5 1.6 1.5.7-.1 2-1.9 2.6-8.4l1-.3z" class="st7"/>
	</g>
</svg>