<?xml version="1.0" encoding="UTF-8"?><svg id="Layer_1" xmlns="http://www.w3.org/2000/svg" viewBox="0 0 36.6 28.59"><defs><style></style></defs><path d="M36.07,19.24l-3.91,5.28c-.35,.43-.61,.72-.92,.96-.31,.24-.53,.34-.75,.34-.13,0-.22-.05-.31-.1-.09-.05-.13-.19-.13-.38,0-.1,0-.24,.04-.38,.04-.19,.09-.34,.13-.48l3.73-9.98c.09-.24,.13-.48,.22-.77,.04-.29,.09-.53,.09-.81,0-.43-.13-.77-.44-1.01-.26-.24-.7-.34-1.23-.34-.31,0-.61,.1-.92,.24-.31,.14-.61,.38-.92,.72-.31,.34-.66,.77-1.01,1.3-.35,.53-.79,1.15-1.23,1.92l-4.48,7.29c-.22,.34-.35,.48-.53,.48-.13,0-.18-.1-.18-.24s.04-.29,.13-.53l2.98-7.68c.18-.38,.31-.77,.4-1.15,.09-.38,.13-.72,.13-1.01s-.09-.58-.26-.82c-.22-.24-.53-.38-.92-.38-.44,0-.88,.19-1.27,.58-.44,.38-.83,.86-1.19,1.34l-4.08,5.71-3.91,5.28c-.35,.43-.61,.72-.92,.96-.31,.24-.53,.34-.75,.34-.13,0-.22-.05-.31-.1-.09-.05-.13-.19-.13-.38,0-.1,0-.24,.04-.38,.04-.19,.09-.34,.13-.48L22.91,0h-2.59l-2.46,6.24c-.26,.58-.48,1.15-.75,1.68-.26,.53-.48,1.1-.79,1.68-.26,.62-.62,1.25-.97,1.92-.39,.67-.83,1.39-1.36,2.25-.53,.82-1.14,1.77-1.89,2.83-.59,.83-1.2,1.75-1.91,2.76l-3.88,5.25c-.31,.43-.66,.82-1.05,1.15-.4,.34-.79,.53-1.1,.53-.18,0-.35-.1-.44-.19-.09-.14-.13-.29-.13-.48,0-.14,.04-.34,.09-.53,.04-.19,.13-.38,.17-.53L10.49,7.43h6.06l.39-.96h-6.06l1.71-4.37h-2.59l-1.71,4.37H3.03l-.4,.96H7.9c-.35,.72-.7,1.49-1.05,2.26-.4,.77-.83,1.63-1.41,2.59-.57,1.01-1.27,2.11-2.15,3.41-.88,1.3-1.97,2.83-3.29,4.61l.53,.48c.66-.96,1.32-1.77,1.84-2.54,.57-.77,1.05-1.44,1.45-2.06,.4-.62,.75-1.15,1.05-1.63,.31-.48,.57-.91,.79-1.3L1.62,23.79c-.26,.77-.48,1.34-.66,1.82-.17,.48-.26,.91-.26,1.3,0,.24,.04,.48,.17,.72,.13,.24,.26,.38,.44,.53,.18,.14,.35,.29,.57,.34,.22,.05,.44,.1,.66,.1,.57,0,1.19-.19,1.8-.62,.61-.43,1.27-1.1,1.98-2.06l3.82-5.25h.01c.19-.25,.36-.49,.52-.73l.08-.11h0c.42-.62,.78-1.2,1.15-1.73,.53-.77,1.01-1.44,1.45-2.06,.44-.62,.79-1.15,1.1-1.63,.31-.48,.57-.91,.79-1.3l-4.04,10.55c-.31,.77-.53,1.44-.7,1.97-.18,.53-.26,1.01-.26,1.39,0,.43,.13,.77,.44,1.06,.26,.29,.61,.43,1.05,.43,.26,0,.53,0,.79-.1,.26-.09,.48-.19,.75-.38,.26-.14,.53-.38,.79-.72,.26-.29,.57-.67,.92-1.15l4.83-6.33,3.51-4.94c.13-.14,.26-.24,.39-.24,.04,0,.13,0,.18,.05,.04,.05,.09,.1,.09,.19v.24l-3.56,9.16c-.26,.77-.48,1.39-.66,1.92-.18,.53-.26,1.01-.26,1.34,0,.67,.31,1.01,.96,1.01,.4,0,.79-.19,1.23-.57,.4-.38,.88-1.01,1.45-1.92l7.06-11.61c.18-.24,.31-.38,.44-.48,.18-.05,.26-.1,.39-.1,.26,0,.4,.14,.4,.48,0,.1,0,.24-.04,.34l-3.47,8.97c-.31,.77-.53,1.44-.7,1.97-.18,.53-.26,1.01-.26,1.39,0,.43,.13,.77,.44,1.06,.26,.29,.61,.43,1.05,.43,.26,0,.53,0,.79-.1,.26-.09,.53-.19,.79-.38,.26-.14,.53-.38,.83-.72,.31-.29,.61-.67,.97-1.15l4.78-6.43-.53-.48Z"/></svg>